<?xml version="1.0" encoding="UTF-8"?>
<!DOCTYPE svg PUBLIC "-//W3C//DTD SVG 1.1//EN" "http://www.w3.org/Graphics/SVG/1.1/DTD/svg11.dtd">
<!-- Creator: CorelDRAW X7 -->
<svg xmlns="http://www.w3.org/2000/svg" xml:space="preserve" width="30mm" height="30mm" version="1.1" shape-rendering="geometricPrecision" text-rendering="geometricPrecision" image-rendering="optimizeQuality" fill-rule="evenodd" clip-rule="evenodd"
viewBox="0 0 300000 300000"
 xmlns:xlink="http://www.w3.org/1999/xlink">
 <g id="Layer_x0020_1">
  <metadata id="CorelCorpID_0Corel-Layer"/>
  <path fill="black" fill-rule="nonzero" d="M51872 181070l-6276 1973c-342,89 -965,-11 -1219,-819l-349 -1110c-211,-673 77,-1226 750,-1438l6057 -1904 -449 -1430 -5721 1798c-1935,608 -2401,1772 -1846,3539l243 773c148,472 387,878 734,1157l-3703 1164 450 1430 11779 -3703 -450 -1430zm-3484 -14376l-1218 204c107,643 -28,899 -376,957l-4176 698c-1983,332 -2623,1422 -2288,3422l422 2523 1304 -218 -451 -2696c-145,-870 217,-1378 913,-1494l869 -146 361 2157c291,1740 1382,2380 3121,2089l349 -58c1739,-291 2217,-1175 1926,-2915l-259 -1548c-75,-453 -345,-783 -699,-974 269,-314 414,-732 362,-1044l-160 -957zm-779 3367l259 1548c102,609 -114,913 -724,1015l-870 146c-608,102 -1116,-261 -1218,-869l-364 -2175 1914 -320c348,-58 870,-145 1003,655zm-423 -11873l-1310 181 335 2428c120,874 -257,1371 -955,1467l-3845 531c-698,96 -1195,-281 -1316,-1154l-334 -2428 -1311 180 311 2254c277,2009 1213,2859 3205,2584l3145 -434c2009,-277 2663,-1346 2386,-3355l-311 -2254zm-179 -10237l-5295 3394 -3519 -3018 28 1887 3180 2724 -6667 97 22 1499 12345 -181 -22 -1499 -3774 56 -536 -451 4265 -2656 -27 -1852zm521 -8697l-1320 -100 -211 2796c-67,879 -540,1286 -1243,1233l-1319 -100 354 -4679 -2286 -173c-1759,-133 -2791,638 -2918,2327l-63 826c-153,2023 596,2875 2601,3027l3166 240c2022,153 2887,-755 3040,-2777l199 -2620zm-6644 3636c-703,-53 -1122,-351 -1056,-1230l77 -1020c47,-616 520,-1022 1135,-976l1319 100 -243 3219 -1232 -93zm7952 -12250l-1305 -219 -317 1896 -4923 -823c-363,-78 -1030,-475 -890,-1311l329 -1966 -1392 -232 -300 1792c-93,556 -11,1035 237,1470l-469 -78 -445 2661 1305 218 212 -1270 6088 1019 -212 1269 1305 218 777 -4644zm379 -10803l-762 -221c-1440,-420 -2421,175 -2861,1683l-167 576c-124,423 -457,748 -998,590l-610 -178c-509,-148 -649,-610 -491,-1153l710 -2438 -1270 -370 -661 2269c-469,1609 -181,2703 1393,3162l492 143c1524,444 2382,-169 2836,-1727l183 -627c138,-474 465,-654 974,-506l897 261c509,148 664,561 491,1153l-785 2694 1271 370 735 -2525c468,-1608 79,-2731 -1377,-3156zm6440 -3179l-2794 -1087 711 -1825c735,-1890 331,-3088 -1543,-3817l-2959 -1152c-1890,-736 -2981,-120 -3717,1770l-230 592c-192,494 -257,998 -118,1468l-394 -153 -512 1315 11013 4286 543 -1397zm-9363 -4874l358 -921c320,-822 891,-1073 1548,-817l3616 1407c657,256 908,827 589,1649l-774 1989 -4849 -1887c-329,-128 -808,-598 -488,-1420zm12593 -9732l-1089 -583c-308,575 -571,695 -883,529l-3733 -1996c-1773,-949 -2946,-476 -3902,1313l-1206 2255 1167 624 1289 -2411c416,-778 1013,-958 1634,-626l778 416 -1031 1928c-832,1556 -359,2729 1196,3560l312 167c1555,832 2473,423 3305,-1132l740 -1385c217,-404 204,-831 41,-1198 405,-84 775,-326 924,-606l458 -855zm-2672 2191l-741 1384c-290,544 -648,653 -1193,362l-778 -416c-544,-291 -725,-888 -434,-1432l1040 -1944 1710 915c312,166 778,415 396,1131zm6857 -9692l-1153 -648 -1200 2137c-432,769 -1033,937 -1648,592l-3383 -1901c-615,-345 -783,-945 -351,-1714l1200 -2137 -1153 -648 -1115 1983c-993,1768 -761,3011 992,3996l2769 1555c1768,993 2935,537 3928,-1231l1114 -1984zm5455 -7690l-1085 -758 -1606 2299c-505,723 -1119,832 -1697,428l-1084 -758 2687 -3846 -1879 -1313c-1446,-1011 -2727,-872 -3696,516l-475 679c-1162,1663 -952,2778 697,3930l2602 1819c1663,1161 2869,821 4031,-842l1505 -2154zm-7569 -254c-578,-404 -788,-873 -283,-1596l586 -839c354,-506 968,-615 1474,-261l1084 757 -1849 2646 -1012 -707zm12721 -5719l-1323 -1167 -1167 1323 1323 1167 1167 -1323zm8447 -8383l-8477 -8978 -1090 1029 2423 2565 -1488 1405c-1475,1392 -1623,2648 -243,4110l2180 2309c1392,1474 2643,1386 4117,-7l526 -496c385,-363 647,-780 747,-1264l279 295 1026 -968zm-2831 854l-783 738c-641,606 -1265,588 -1749,75l-2664 -2822c-484,-512 -466,-1136 175,-1741l1616 -1526 3572 3783c242,257 473,888 -167,1493zm8484 -9056l-1991 -2473c-1261,-1566 -2525,-1590 -4105,-318l-454 365c-1580,1272 -1827,2512 -566,4078l1991 2474c1261,1566 2525,1590 4105,318l453 -365c1581,-1272 1828,-2512 567,-4079zm-946 1215c442,550 375,1170 -312,1723l-729 586c-687,553 -1307,486 -1749,-63l-2433 -3024c-443,-549 -375,-1169 312,-1722l728 -586c687,-553 1307,-486 1749,63l2434 3023zm2927 -11971l-846 -1344 -1418 891 846 1345 1418 -892zm7863 7765l-705 -1120 -2209 1389 -3991 -6345 -3464 2179 705 1119 2195 -1380 3990 6345 3479 -2187zm7976 -4275l-614 -1171 -1577 827c-469,245 -785,213 -1031,-256l-2539 -4842 2280 -1196 -614 -1172 -2281 1196 -983 -1875 -1327 696 983 1875 -1485 778 615 1172 1484 -778 2498 4763c574,1094 1530,1589 2624,1015l1967 -1032zm8153 -6462l-1134 -2966c-717,-1878 -1913,-2290 -3808,-1565l-544 207c-1894,724 -2511,1828 -1793,3706l1133 2966c718,1879 1914,2290 3808,1566l544 -207c1895,-725 2512,-1829 1794,-3707zm-1274 865c251,658 -3,1228 -827,1542l-874 334c-824,315 -1393,61 -1645,-598l-1385 -3625c-252,-659 3,-1228 827,-1543l873 -334c824,-315 1394,-60 1645,598l1386 3626zm10737 -914l-397 -1262 -2338 735c-842,264 -1394,-24 -1606,-697l-1164 -3702c-211,-673 77,-1226 919,-1490l2338 -735 -397 -1262 -2170 682c-1935,608 -2617,1673 -2014,3591l952 3029c608,1935 1772,2401 3707,1793l2170 -682zm8397 -1855l-218 -1305 -1896 317 -823 -4922c-44,-369 115,-1128 950,-1268l1966 -329 -233 -1392 -1792 300c-556,93 -983,326 -1313,702l-79 -469 -2661 445 218 1305 1270 -213 1018 6089 -1269 212 218 1305 4644 -777zm11260 -1632l-169 -1223c-646,89 -898,-54 -946,-403l-578 -4194c-275,-1992 -1347,-2663 -3356,-2386l-2534 350 181 1310 2708 -373c874,-121 1371,256 1468,954l120 874 -2166 299c-1748,241 -2419,1313 -2178,3060l49 350c241,1747 1110,2250 2858,2009l1555 -214c455,-63 792,-324 994,-672 306,278 719,435 1033,392l961 -133zm-3343 -874l-1555 215c-611,84 -910,-141 -994,-754l-121 -873c-84,-612 292,-1109 904,-1193l2184 -301 265 1921c48,350 120,874 -683,985zm12196 847l-19 -1323 -1781 26c-529,8 -797,-164 -804,-693l-80 -5467 2574 -38 -19 -1323 -2575 38 -31 -2117 -1499 22 31 2117 -1676 24 20 1323 1676 -24 79 5378c18,1235 648,2108 1882,2090l2222 -33zm7521 402l133 -1759 -1759 -133 -133 1759 1759 133zm12262 -1081l524 -3131c332,-1984 -491,-2944 -2492,-3278l-575 -96c-2000,-335 -3090,305 -3422,2289l-524 3131c-331,1984 492,2943 2492,3278l574 96c2001,335 3092,-305 3423,-2289zm-1536 101c-117,696 -624,1058 -1494,912l-922 -154c-870,-145 -1233,-653 -1116,-1348l640 -3828c116,-696 624,-1058 1494,-912l922 154c870,145 1232,653 1116,1348l-640 3828zm4632 6580l839 -2878 1880 547c1947,567 3105,60 3667,-1871l888 -3048c568,-1947 -142,-2981 -2089,-3548l-609 -177c-509,-149 -1017,-168 -1473,11l118 -406 -1355 -395 -3305 11346 1439 419zm4036 -9755l948 277c847,246 1147,793 950,1470l-1086 3726c-197,677 -743,977 -1590,730l-2049 -597 1455 -4995c99,-339 525,-857 1372,-611zm9876 11192l480 -1233 -2613 -1017c-822,-320 -1073,-891 -817,-1548l479 -1233 4373 1702 832 -2137c639,-1644 202,-2855 -1376,-3469l-772 -301c-1890,-735 -2924,-267 -3654,1607l-1151 2959c-736,1889 -120,2981 1770,3717l2449 953zm-1543 -7415c256,-657 663,-971 1485,-652l953 372c575,223 826,794 602,1369l-480 1233 -3008 -1171 448 -1151zm6428 9417l3078 -5755c166,-311 690,-731 1468,-315l1026 549c623,333 804,929 471,1551l-2994 5600 1322 707 2828 -5289c956,-1788 475,-2946 -1158,-3819l-715 -382c-468,-250 -960,-374 -1444,-293l200 -373 -1245 -665 -4158 7777 1321 707zm13292 4786l389 -691c734,-1308 377,-2399 -992,-3168l-523 -294c-385,-216 -626,-614 -349,-1106l311 -553c259,-462 742,-494 1234,-217l2214 1243 648 -1153 -2060 -1158c-1462,-821 -2592,-788 -3396,642l-250 446c-778,1384 -375,2359 1040,3154l570 320c429,241 531,601 272,1063l-458 815c-259,462 -697,519 -1234,217l-2446 -1374 -648 1153 2292 1288c1460,820 2643,696 3386,-627zm8795 5483l1819 -2602c1152,-1649 821,-2869 -842,-4031l-477 -334c-1663,-1161 -2922,-1052 -4074,597l-1819 2602c-1151,1649 -821,2869 842,4031l477 333c1663,1162 2923,1053 4074,-596zm-1431 -569c-403,578 -1017,687 -1740,182l-767 -536c-723,-505 -832,-1119 -428,-1697l2223 -3181c404,-578 1018,-687 1741,-182l766 536c723,505 832,1119 428,1697l-2223 3181zm6837 9094l5833 -6614 -1124 -992 -4352 4934c-271,255 -845,478 -1466,-70l-714 -630c-529,-467 -568,-1089 -102,-1618l4200 -4762 -1125 -992 -3966 4497c-1342,1521 -1140,2758 249,3983l450 397c397,350 835,573 1327,629l-268 305 1058 933zm5630 5846l962 -909 -1320 -1397 3629 -3427c282,-242 1001,-533 1583,82l1368 1450 1026 -969 -1248 -1321c-387,-410 -818,-635 -1314,-699l346 -327 -1853 -1962 -962 908 884 936 -4488 4238 -884 -936 -962 909 3233 3424zm6650 8048l1030 -830 -1536 -1909c-554,-687 -487,-1307 63,-1749l3023 -2434c549,-442 1169,-375 1722,312l1537 1910 1031 -830 -1427 -1772c-1271,-1580 -2511,-1827 -4078,-566l-2473 1991c-1580,1271 -1590,2525 -319,4105l1427 1772zm5146 7891l1120 -704 -1493 -2374c-470,-747 -331,-1355 266,-1730l1120 -704 2498 3971 1941 -1221c1493,-939 1863,-2172 962,-3605l-442 -702c-1079,-1717 -2189,-1957 -3891,-886l-2687 1690c-1717,1080 -1873,2324 -793,4040l1399 2225zm3178 -6874c597,-376 1111,-386 1581,360l544 866c329,523 190,1131 -332,1459l-1120 705 -1718 -2733 1045 -657zm603 13792l1562 -819 -819 -1562 -1562 819 819 1562zm4504 10321l1236 -472 -875 -2290c-315,-824 -60,-1393 598,-1645l3625 -1385c659,-252 1228,3 1543,827l875 2289 1236 -472 -812 -2125c-724,-1894 -1828,-2511 -3706,-1793l-2966 1133c-1895,724 -2290,1914 -1566,3808l812 2125zm5799 8845l3029 -952c1918,-603 2401,-1771 1793,-3707l-175 -555c-608,-1935 -1673,-2617 -3591,-2014l-3029 952c-1918,603 -2401,1772 -1793,3707l175 555c608,1935 1673,2618 3591,2014zm-786 -1324c-673,212 -1226,-77 -1490,-918l-281 -892c-264,-841 24,-1394 697,-1606l3702 -1164c673,-211 1226,77 1490,919l281 892c264,841 -24,1394 -697,1605l-3702 1164zm-975 5705l6541 -1094c386,-46 1020,9 1151,792l18 104c102,609 -145,847 -1136,1013l-6263 1047 233 1392 6384 -1068c403,-50 1175,-35 1305,747l18 105c122,731 -263,884 -1133,1030l-6263 1047 233 1392 6245 -1044c1897,-318 2334,-1124 2107,-2481l-18 -104c-93,-557 -374,-1064 -949,-1397 397,-406 545,-1021 408,-1839l-17 -104c-70,-417 -270,-760 -581,-1012l400 -67 -218 -1305 -8698 1455 233 1391zm1654 9390l6613 -501c388,-11 1015,101 1075,893l8 104c47,617 -220,831 -1222,907l-6332 479 107 1407 6454 -488c406,-14 1173,71 1233,861l8 106c56,739 -342,857 -1221,924l-6332 479 106 1407 6314 -478c1918,-145 2426,-908 2322,-2280l-8 -106c-43,-563 -277,-1093 -820,-1477 433,-368 635,-967 572,-1794l-8 -106c-31,-421 -200,-781 -487,-1060l405 -30 -100 -1320 -8794 666 107 1407zm699 15216l8818 -129 -22 -1499 -6579 96c-370,-29 -921,-304 -933,-1133l-14 -952c-11,-705 424,-1152 1129,-1163l6349 -93 -22 -1499 -5996 87c-2028,30 -2808,1012 -2781,2864l9 599c8,529 138,1004 427,1405l-406 6 21 1411zm-221 4671l6507 493c352,26 948,336 881,1216l-88 1160c-53,704 -526,1111 -1229,1058l-6332 -480 -113 1495 5980 453c2022,153 2887,-755 3027,-2601l61 -809c40,-528 -45,-1029 -315,-1439l422 32 106 -1407 -8794 -665 -113 1494zm9104 13754l1567 262 276 -1652 -1566 -262 -277 1652zm-11027 713l1305 218 430 -2574 7394 1236 674 -4036 -1304 -218 -428 2558 -7393 -1237 -678 4053zm-2310 8747l1270 370 498 -1710c148,-508 391,-713 899,-565l5250 1529 -720 2473 1270 370 720 -2472 2033 592 419 -1440 -2032 -592 468 -1609 -1270 -370 -469 1609 -5164 -1504c-1186,-346 -2205,0 -2550,1186l-622 2133zm-2842 3522l-1232 -479 -307 789c-409,1052 -520,1823 1043,2961l8114 6092 557 -1431 -6190 -4471 7687 625 589 -1512 -9274 -487 -128 329 -815 -582c-442,-323 -511,-633 -312,-1143l268 -691zm-95198 90780c641,-3 1281,-12 1919,-23l-2 -3059 996 0 2 3038c633,-17 1266,-41 1896,-67l-4 -3045 996 0 4 3001c682,-34 1361,-74 2040,-119l-159 -3054 996 -50 158 3034c631,-47 1260,-98 1888,-154l-160 -3049 996 -50 158 3004c680,-66 1358,-136 2034,-214l-315 -3035 992 -102 313 3018c629,-77 1255,-157 1881,-243l-319 -3038 992 -102 315 2999c676,-99 1351,-202 2024,-312l-473 -3010 984 -152 471 2997c623,-107 1245,-218 1865,-334l-478 -3016 984 -156 473 2985c671,-131 1339,-267 2006,-409l-628 -2974 976 -204 627 2967c618,-136 1234,-278 1849,-424l-636 -2988 976 -208 630 2963c644,-159 1287,-324 1927,-492l-787 -2936 964 -258 788 2938c623,-169 1243,-345 1862,-523l-800 -2946 964 -262 795 2929c655,-195 1306,-396 1956,-601l-943 -2877 950 -308 945 2882c602,-196 1201,-396 1799,-600l-956 -2900 950 -312 952 2885c644,-226 1286,-458 1926,-694l-1092 -2817 930 -360 1096 2828c592,-224 1181,-452 1769,-685l-1108 -2843 930 -360 1104 2832c632,-256 1262,-518 1889,-784l-1237 -2751 910 -406 1242 2763c580,-252 1158,-507 1733,-768l-1252 -2778 910 -410 1249 2772c619,-286 1235,-577 1848,-873l-1372 -2681 886 -454 1381 2697c567,-280 1133,-562 1696,-850l-1391 -2712 886 -454 1388 2707c603,-315 1206,-633 1803,-958l-1504 -2610 864 -496 1512 2625c534,-296 1065,-594 1594,-897l-1515 -2624 864 -500 1515 2623c596,-348 1189,-700 1779,-1057l-1627 -2533 840 -540 1638 2550c536,-331 1070,-666 1600,-1004l-1642 -2564 840 -540 1641 2563c568,-369 1134,-742 1695,-1120l-1739 -2453 812 -578 1751 2470c519,-356 1036,-716 1550,-1079l-1759 -2489 816 -574 1754 2483c549,-395 1095,-794 1638,-1198l-1848 -2375 790 -614 1858 2387c501,-379 1000,-762 1495,-1149l-1866 -2409 790 -610 1860 2401c529,-420 1055,-844 1578,-1274l-1949 -2292 762 -644 1955 2299c482,-403 962,-809 1437,-1218l-1968 -2330 762 -644 1960 2320c509,-445 1014,-894 1516,-1348l-2043 -2207 730 -676 2049 2212c462,-424 920,-851 1376,-1282l-2064 -2248 734 -676 2052 2235c478,-458 950,-921 1420,-1387l-2129 -2128 704 -708 2131 2130c447,-452 892,-906 1331,-1364l-2169 -2152 704 -708 2154 2138c435,-460 867,-923 1295,-1390l-2159 -2127 700 -710 2132 2099c457,-506 910,-1015 1359,-1529l-2279 -2029 664 -746 2269 2020c413,-481 823,-964 1229,-1451l-2267 -2008 660 -746 2243 1987c431,-525 857,-1055 1280,-1588l-2380 -1908 626 -778 2372 1901c389,-499 774,-1000 1155,-1504l-2365 -1889 622 -782 2344 1872c406,-546 807,-1096 1204,-1649l-2472 -1782 582 -808 2469 1780c365,-517 727,-1036 1084,-1559l-2459 -1767 582 -808 2437 1751c380,-565 755,-1135 1126,-1707l-2558 -1654 542 -836 2555 1652c339,-532 674,-1067 1005,-1604l-2545 -1639 540 -840 2526 1628c346,-571 686,-1145 1022,-1722l-2635 -1521 496 -864 2639 1523c315,-549 624,-1101 931,-1656l-2624 -1514 496 -864 2608 1504c324,-598 643,-1200 957,-1804l-2709 -1388 454 -886 2713 1390c288,-563 570,-1130 849,-1697l-2698 -1380 454 -886 2682 1372c296,-614 584,-1231 870,-1850l-2773 -1249 410 -910 2779 1252c260,-577 516,-1156 767,-1737l-2764 -1241 406 -910 2752 1236c266,-627 526,-1258 782,-1891l-2832 -1104 360 -930 2843 1108c232,-588 459,-1179 683,-1771l-2826 -1097 360 -930 2815 1093c235,-640 466,-1283 691,-1927l-2886 -953 312 -950 2900 958c204,-599 404,-1201 599,-1804l-2880 -943 308 -950 2875 942c205,-651 405,-1305 599,-1960l-2928 -793 258 -964 2949 799c167,-581 331,-1162 489,-1746l-2938 -787 258 -964 2936 787c175,-666 346,-1333 511,-2003l-2961 -661 214 -972 2978 665c143,-606 284,-1214 418,-1824l-2966 -679 222 -972 2954 676c140,-660 276,-1321 405,-1985l-2988 -546 180 -980 2994 547c115,-614 225,-1230 331,-1847l-2999 -560 184 -980 2980 557c108,-668 211,-1338 309,-2009l-3004 -416 136 -988 3009 417c86,-620 165,-1241 241,-1864l-3024 -429 136 -988 3008 426c77,-673 147,-1348 213,-2024l-3014 -282 90 -992 3019 283c56,-624 107,-1250 154,-1877l-3047 -292 94 -992 3022 290c45,-677 87,-1355 121,-2035l-3022 -142 46 -996 3020 142c27,-626 49,-1253 66,-1881l-3058 -150 46 -996 3035 149c13,-660 21,-1322 24,-1985l-3009 0 0 -1000 3009 0c-3,-641 -12,-1281 -23,-1919l-3059 2 0 -996 3038 -2c-17,-633 -41,-1266 -67,-1896l-3045 4 0 -996 3001 -4c-34,-682 -74,-1361 -119,-2040l-3054 159 -50 -996 3034 -158c-47,-631 -98,-1260 -154,-1888l-3049 160 -50 -996 3004 -158c-66,-680 -136,-1358 -214,-2034l-3035 315 -102 -992 3018 -313c-77,-629 -157,-1255 -243,-1881l-3038 319 -102 -992 2999 -315c-99,-676 -202,-1351 -312,-2024l-3010 473 -152 -984 2997 -471c-107,-623 -218,-1245 -334,-1865l-3016 478 -156 -984 2985 -473c-131,-671 -267,-1339 -409,-2006l-2974 628 -204 -976 2967 -627c-136,-618 -278,-1234 -424,-1849l-2988 636 -208 -976 2963 -630c-159,-644 -324,-1287 -492,-1927l-2936 787 -258 -964 2938 -788c-169,-623 -345,-1243 -523,-1862l-2946 800 -262 -964 2929 -795c-195,-655 -396,-1306 -601,-1956l-2877 943 -308 -950 2882 -945c-196,-602 -396,-1201 -600,-1799l-2900 956 -312 -950 2885 -952c-226,-644 -458,-1286 -694,-1926l-2817 1092 -360 -930 2828 -1096c-224,-592 -452,-1181 -685,-1769l-2843 1108 -360 -930 2832 -1104c-256,-632 -518,-1262 -784,-1889l-2751 1237 -406 -910 2763 -1242c-252,-580 -507,-1158 -768,-1733l-2778 1252 -410 -910 2772 -1249c-286,-619 -577,-1235 -873,-1848l-2681 1372 -454 -886 2697 -1381c-280,-567 -562,-1133 -850,-1696l-2712 1391 -454 -886 2707 -1388c-315,-603 -633,-1206 -958,-1803l-2610 1504 -496 -864 2625 -1512c-296,-534 -594,-1065 -897,-1594l-2624 1515 -500 -864 2623 -1515c-348,-596 -700,-1189 -1057,-1779l-2533 1627 -540 -840 2550 -1638c-331,-536 -666,-1070 -1004,-1600l-2564 1642 -540 -840 2563 -1641c-369,-568 -742,-1134 -1120,-1695l-2453 1739 -578 -812 2470 -1751c-356,-519 -716,-1036 -1079,-1550l-2489 1759 -574 -816 2483 -1754c-395,-549 -794,-1095 -1198,-1638l-2375 1848 -614 -790 2387 -1858c-379,-501 -762,-1000 -1149,-1495l-2409 1866 -610 -790 2401 -1860c-420,-529 -844,-1055 -1274,-1578l-2292 1949 -644 -762 2299 -1955c-403,-482 -809,-962 -1218,-1437l-2330 1968 -644 -762 2320 -1960c-445,-509 -894,-1014 -1348,-1516l-2207 2043 -676 -730 2212 -2049c-424,-462 -851,-920 -1282,-1376l-2248 2064 -676 -734 2235 -2052c-458,-478 -921,-950 -1387,-1420l-2128 2129 -708 -704 2130 -2131c-452,-447 -906,-892 -1364,-1331l-2152 2169 -708 -704 2138 -2154c-460,-435 -923,-867 -1390,-1295l-2127 2159 -710 -700 2099 -2132c-506,-457 -1015,-910 -1529,-1359l-2029 2279 -746 -664 2020 -2269c-481,-413 -964,-823 -1451,-1229l-2008 2267 -746 -660 1987 -2243c-525,-431 -1055,-857 -1588,-1280l-1908 2380 -778 -626 1901 -2372c-499,-389 -1000,-774 -1504,-1155l-1889 2365 -782 -622 1872 -2344c-546,-406 -1096,-807 -1649,-1204l-1782 2472 -808 -582 1780 -2469c-517,-365 -1036,-727 -1559,-1084l-1767 2459 -808 -582 1751 -2437c-565,-380 -1135,-755 -1707,-1126l-1654 2558 -836 -542 1652 -2555c-532,-339 -1067,-674 -1604,-1005l-1639 2545 -840 -540 1628 -2526c-571,-346 -1145,-686 -1722,-1022l-1521 2635 -864 -496 1523 -2639c-549,-315 -1101,-624 -1656,-931l-1514 2624 -864 -496 1504 -2608c-598,-324 -1200,-643 -1804,-957l-1388 2709 -886 -454 1390 -2713c-563,-288 -1130,-570 -1697,-849l-1380 2698 -886 -454 1372 -2682c-614,-296 -1231,-584 -1850,-870l-1249 2773 -910 -410 1252 -2779c-577,-260 -1156,-516 -1737,-767l-1241 2764 -910 -406 1236 -2752c-627,-266 -1258,-526 -1891,-782l-1104 2832 -930 -360 1108 -2843c-588,-232 -1179,-459 -1771,-683l-1097 2826 -930 -360 1093 -2815c-640,-235 -1283,-466 -1927,-691l-953 2886 -950 -312 958 -2900c-599,-204 -1201,-404 -1804,-599l-943 2880 -950 -308 942 -2875c-651,-205 -1305,-405 -1960,-599l-793 2928 -964 -258 799 -2949c-581,-167 -1162,-331 -1746,-489l-787 2938 -964 -258 787 -2936c-666,-175 -1333,-346 -2003,-511l-661 2961 -972 -214 665 -2978c-606,-143 -1214,-284 -1824,-418l-679 2966 -972 -222 676 -2954c-660,-140 -1321,-276 -1985,-405l-546 2988 -980 -180 547 -2994c-614,-115 -1230,-225 -1847,-331l-560 2999 -980 -184 557 -2980c-668,-108 -1338,-211 -2009,-309l-416 3004 -988 -136 417 -3009c-620,-86 -1241,-165 -1864,-241l-429 3024 -988 -136 426 -3008c-673,-77 -1348,-147 -2024,-213l-282 3014 -992 -90 283 -3019c-624,-56 -1250,-107 -1877,-154l-292 3047 -992 -94 290 -3022c-677,-45 -1355,-87 -2035,-121l-142 3022 -996 -46 142 -3020c-626,-27 -1253,-49 -1881,-66l-150 3058 -996 -46 149 -3035c-660,-13 -1322,-21 -1985,-24l0 3009 -1000 0 0 -3009c-640,3 -1281,10 -1919,23l2 3059 -996 0 -2 -3038c-633,17 -1266,41 -1896,67l4 3045 -996 0 -4 -3001c-682,34 -1361,74 -2040,119l159 3054 -996 50 -158 -3034c-631,47 -1260,98 -1888,154l160 3049 -996 50 -158 -3004c-680,66 -1358,136 -2034,214l315 3035 -992 102 -313 -3018c-629,77 -1255,157 -1881,243l319 3038 -992 102 -315 -2999c-676,99 -1351,203 -2024,312l473 3010 -984 152 -471 -2997c-623,107 -1245,218 -1865,334l478 3016 -984 156 -473 -2985c-671,131 -1339,267 -2006,409l628 2974 -976 204 -627 -2967c-618,136 -1234,278 -1849,424l636 2988 -976 208 -630 -2963c-644,159 -1287,324 -1927,492l787 2936 -964 258 -788 -2938c-623,169 -1243,345 -1862,523l800 2946 -964 262 -795 -2929c-655,195 -1306,396 -1956,601l943 2877 -950 308 -945 -2882c-602,196 -1201,396 -1799,600l956 2900 -950 312 -952 -2885c-644,226 -1286,458 -1926,694l1092 2817 -930 360 -1096 -2828c-592,224 -1181,452 -1769,685l1108 2843 -930 360 -1104 -2832c-632,256 -1262,518 -1889,784l1237 2751 -910 406 -1242 -2763c-580,252 -1158,507 -1733,768l1252 2778 -910 410 -1249 -2772c-619,286 -1235,577 -1848,873l1372 2681 -886 454 -1381 -2697c-567,280 -1133,562 -1696,850l1391 2712 -886 454 -1388 -2707c-603,315 -1206,633 -1803,958l1504 2610 -864 496 -1512 -2625c-534,296 -1065,594 -1594,897l1515 2624 -864 500 -1515 -2623c-596,348 -1190,700 -1779,1057l1627 2533 -840 540 -1638 -2550c-536,331 -1069,666 -1600,1004l1642 2564 -840 540 -1641 -2563c-568,369 -1133,742 -1695,1120l1739 2453 -812 578 -1751 -2470c-519,356 -1036,716 -1550,1079l1759 2489 -816 574 -1754 -2483c-549,395 -1095,794 -1638,1198l1848 2375 -790 614 -1858 -2387c-501,379 -1000,762 -1495,1149l1866 2409 -790 610 -1860 -2401c-529,420 -1055,844 -1578,1274l1949 2292 -762 644 -1955 -2299c-482,403 -962,809 -1437,1218l1968 2330 -762 644 -1960 -2320c-509,445 -1014,894 -1516,1348l2043 2207 -730 676 -2049 -2212c-462,424 -920,851 -1376,1282l2064 2248 -734 676 -2052 -2235c-478,458 -950,921 -1420,1387l2129 2128 -704 708 -2131 -2130c-447,452 -892,906 -1331,1364l2169 2152 -704 708 -2154 -2138c-435,460 -867,923 -1295,1390l2159 2127 -700 710 -2132 -2099c-457,506 -910,1015 -1359,1529l2279 2029 -664 746 -2269 -2020c-413,481 -823,964 -1229,1451l2267 2008 -660 746 -2243 -1987c-431,525 -857,1055 -1280,1588l2380 1908 -626 778 -2372 -1901c-389,499 -774,1000 -1155,1504l2365 1889 -622 782 -2344 -1872c-406,546 -807,1096 -1204,1649l2472 1782 -582 808 -2469 -1780c-365,517 -727,1036 -1084,1559l2459 1767 -582 808 -2437 -1751c-380,565 -755,1135 -1126,1707l2558 1654 -542 836 -2555 -1652c-339,532 -674,1067 -1005,1604l2545 1639 -540 840 -2526 -1628c-346,571 -686,1145 -1022,1722l2635 1521 -496 864 -2639 -1523c-315,549 -624,1101 -931,1656l2624 1514 -496 864 -2608 -1504c-324,598 -643,1200 -957,1804l2709 1388 -454 886 -2713 -1390c-288,563 -570,1130 -849,1697l2698 1380 -454 886 -2682 -1372c-296,614 -584,1231 -870,1850l2773 1249 -410 910 -2779 -1252c-260,577 -516,1156 -767,1737l2764 1241 -406 910 -2752 -1236c-266,627 -526,1258 -782,1891l2832 1104 -360 930 -2843 -1108c-232,588 -459,1179 -683,1771l2826 1097 -360 930 -2815 -1093c-235,640 -466,1283 -691,1927l2886 953 -312 950 -2900 -958c-204,599 -404,1201 -599,1804l2880 943 -308 950 -2875 -942c-205,651 -405,1305 -599,1960l2928 793 -258 964 -2949 -799c-167,581 -331,1162 -489,1746l2938 787 -258 964 -2936 -787c-175,666 -346,1333 -511,2003l2961 661 -214 972 -2978 -665c-143,606 -284,1214 -418,1824l2966 679 -222 972 -2954 -676c-140,660 -276,1321 -405,1985l2988 546 -180 980 -2994 -547c-115,614 -225,1230 -331,1847l2999 560 -184 980 -2980 -557c-108,668 -211,1338 -309,2009l3004 416 -136 988 -3009 -417c-86,620 -165,1241 -241,1864l3024 429 -136 988 -3008 -426c-77,673 -147,1348 -213,2024l3014 282 -90 992 -3019 -283c-56,624 -107,1250 -154,1877l3047 292 -94 992 -3022 -290c-45,677 -87,1355 -121,2035l3022 142 -46 996 -3020 -142c-27,626 -49,1253 -66,1881l3058 150 -46 996 -3035 -149c-13,660 -21,1322 -24,1985l3009 0 0 1000 -3009 0c3,641 12,1281 23,1919l3059 -2 0 996 -3038 2c17,633 41,1266 67,1896l3045 -4 0 996 -3001 4c34,682 74,1361 119,2040l3054 -159 50 996 -3034 158c47,631 98,1260 154,1888l3049 -160 50 996 -3004 158c66,680 136,1358 214,2034l3035 -315 102 992 -3018 313c77,629 157,1255 243,1881l3038 -319 102 992 -2999 315c99,676 202,1351 312,2024l3010 -473 152 984 -2997 471c107,623 218,1245 334,1865l3016 -478 156 984 -2985 473c131,671 267,1339 409,2006l2974 -628 204 976 -2967 627c136,618 278,1234 424,1849l2988 -636 208 976 -2963 630c159,644 324,1287 492,1927l2936 -787 258 964 -2938 788c169,623 345,1243 523,1862l2946 -800 262 964 -2929 795c195,655 396,1306 601,1956l2877 -943 308 950 -2882 945c196,602 396,1201 600,1799l2900 -956 312 950 -2885 952c226,644 458,1286 694,1926l2817 -1092 360 930 -2828 1096c224,592 452,1181 685,1769l2843 -1108 360 930 -2832 1104c256,632 518,1262 784,1889l2751 -1237 406 910 -2763 1242c252,580 507,1158 768,1733l2778 -1252 410 910 -2772 1249c286,619 577,1235 873,1848l2681 -1372 454 886 -2697 1381c280,567 562,1133 850,1696l2712 -1391 454 886 -2707 1388c315,603 633,1206 958,1803l2610 -1504 496 864 -2625 1512c296,534 594,1065 897,1594l2624 -1515 500 864 -2623 1515c348,596 700,1189 1057,1779l2533 -1627 540 840 -2550 1638c331,536 666,1070 1004,1600l2564 -1642 540 840 -2563 1641c369,568 742,1134 1120,1695l2453 -1739 578 812 -2470 1751c356,519 716,1036 1079,1550l2489 -1759 574 816 -2483 1754c395,549 794,1095 1198,1638l2375 -1848 614 790 -2387 1858c379,501 762,1000 1149,1495l2409 -1866 610 790 -2401 1860c420,529 844,1055 1274,1578l2292 -1949 644 762 -2299 1955c403,482 809,962 1218,1437l2330 -1968 644 762 -2320 1960c445,509 894,1014 1348,1516l2207 -2043 676 730 -2212 2049c424,462 851,920 1282,1376l2248 -2064 676 734 -2235 2052c458,478 921,950 1387,1420l2128 -2129 708 704 -2130 2131c452,447 906,892 1364,1331l2152 -2169 708 704 -2138 2154c460,435 923,867 1390,1295l2127 -2159 710 700 -2099 2132c506,457 1015,910 1529,1359l2029 -2279 746 664 -2020 2269c481,413 964,823 1451,1229l2008 -2267 746 660 -1987 2243c525,431 1055,857 1588,1280l1908 -2380 778 626 -1901 2372c499,389 1000,774 1504,1155l1889 -2365 782 622 -1872 2344c546,406 1096,807 1649,1204l1782 -2472 808 582 -1780 2469c517,365 1036,727 1559,1084l1767 -2459 808 582 -1751 2437c565,380 1135,755 1707,1126l1654 -2558 836 542 -1652 2555c532,339 1067,674 1604,1005l1639 -2545 840 540 -1628 2526c571,346 1145,686 1722,1022l1521 -2635 864 496 -1523 2639c549,315 1101,624 1656,931l1514 -2624 864 496 -1504 2608c598,324 1200,643 1804,957l1388 -2709 886 454 -1390 2713c563,288 1130,570 1697,849l1380 -2698 886 454 -1372 2682c614,296 1231,584 1850,870l1249 -2773 910 410 -1252 2779c577,260 1156,516 1737,767l1241 -2764 910 406 -1236 2752c627,266 1258,526 1891,782l1104 -2832 930 360 -1108 2843c588,232 1179,459 1771,683l1097 -2826 930 360 -1093 2815c640,235 1283,466 1927,691l953 -2886 950 312 -958 2900c599,204 1201,404 1804,599l943 -2880 950 308 -942 2875c651,205 1305,405 1960,599l793 -2928 964 258 -799 2949c581,167 1162,331 1746,489l787 -2938 964 258 -787 2936c666,175 1333,346 2003,511l661 -2961 972 214 -665 2978c606,143 1214,284 1824,418l679 -2966 972 222 -676 2954c660,140 1321,276 1985,405l546 -2988 980 180 -547 2994c614,115 1230,225 1847,331l560 -2999 980 184 -557 2980c668,108 1338,211 2009,309l416 -3004 988 136 -417 3009c620,86 1241,165 1864,241l429 -3024 988 136 -426 3008c673,77 1348,147 2024,213l282 -3014 992 90 -283 3019c624,56 1250,107 1877,154l292 -3047 992 94 -290 3022c677,45 1355,87 2035,121l142 -3022 996 46 -142 3020c626,27 1253,49 1881,66l150 -3058 996 46 -149 3035c660,13 1322,21 1985,24l0 -3009 1000 0 0 3009zm0 -33463l0 6104 -1000 0 0 -6104 -1151 -13 -279 5715 -996 -46 278 -5693c-380,-11 -758,-23 -1137,-39l-253 5360 -996 -46 253 -5359 -1190 -70 -476 4974 -992 -94 474 -4949 -1135 -94 -431 4611 -992 -90 432 -4614c-396,-39 -791,-80 -1185,-125l-599 4225 -988 -136 597 -4207 -1128 -147 -535 3863 -988 -136 536 -3868 -1175 -181 -650 3484 -980 -180 647 -3468 -1120 -200 -568 3115 -980 -176 570 -3126 -1164 -237 -629 2746 -972 -222 627 -2735c-369,-82 -738,-165 -1106,-252l-530 2374 -972 -214 534 -2393 -1183 -301 -538 2010 -964 -258 538 -2010 -1040 -290 -636 2345 -964 -258 641 -2366 -1142 -350 -879 2680 -950 -308 877 -2675 -1086 -361 -991 3001 -950 -312 995 -3015c-376,-132 -751,-266 -1124,-403l-1284 3311 -930 -360 1280 -3300 -1069 -412 -1412 3625 -930 -360 1416 -3636 -1104 -457 -1755 3908 -910 -406 1749 -3895c-351,-152 -700,-307 -1048,-464l-1898 4215 -910 -410 1900 -4219 -1080 -509 -2285 4465 -886 -454 2276 -4447 -1026 -514 -2440 4759 -886 -454 2441 -4762 -1054 -560 -2869 4977 -864 -496 2859 -4959 -1000 -562 -3039 5263 -864 -500 3039 -5263 -1000 -594 -3114 4831 -840 -540 3102 -4812 -968 -606 -2905 4495 -836 -540 2904 -4494 -998 -658 -2932 4080 -808 -582 2915 -4057 -941 -655 -2704 3753 -808 -582 2701 -3749 -963 -703 -2681 3358 -782 -622 2664 -3336 -908 -697 -2439 3045 -778 -626 2433 -3036 -928 -748 -2369 2674 -746 -660 2347 -2649 -876 -741 -2111 2372 -746 -664 2102 -2362 -893 -793 -1999 2030 -710 -700 1971 -2001 -837 -780 -1726 1740 -708 -704 1712 -1725 -821 -801 -1486 1486 -708 -708 1486 -1486 -809 -828 -1803 1656 -676 -734 1790 -1643 -777 -834 -2073 1918 -676 -730 2079 -1924c-266,-294 -529,-590 -790,-888l-2424 2049 -644 -762 2414 -2041c-248,-288 -493,-578 -737,-870l-2705 2299 -644 -762 2713 -2305 -747 -924 -3083 2389 -610 -790 3076 -2383 -696 -904 -3372 2624 -614 -790 3385 -2635c-236,-317 -468,-636 -700,-957l-3779 2670 -574 -816 3773 -2666 -653 -938 -4077 2890 -578 -812 4094 -2902c-221,-329 -439,-660 -655,-992l-4507 2886 -540 -840 4506 -2885 -607 -967 -4816 3093 -540 -840 4835 -3105 -621 -1044 -5273 3045 -500 -864 5273 -3045 -537 -954 -4959 2858 -496 -864 4975 -2868 -561 -1053 -4762 2442 -454 -886 4759 -2440 -515 -1025 -4447 2276 -454 -886 4465 -2284c-172,-359 -344,-719 -511,-1080l-4219 1900 -410 -910 4214 -1898 -464 -1046 -3895 1749 -406 -910 3907 -1754c-155,-366 -307,-735 -457,-1103l-3636 1416 -360 -930 3624 -1411 -413 -1067 -3299 1279 -360 -930 3311 -1284c-137,-373 -273,-747 -405,-1123l-3016 995 -312 -950 3001 -991 -361 -1085 -2675 877 -308 -950 2679 -878c-119,-379 -237,-760 -351,-1141l-2366 642 -262 -964 2348 -637 -316 -1126 -2009 539 -258 -964 2010 -539 -284 -1114 -2404 512 -208 -976 2378 -506 -256 -1116 -2755 582 -204 -976 2748 -580 -239 -1170 -3151 498 -156 -984 3119 -493 -202 -1127 -3500 550 -152 -984 3488 -548c-64,-393 -125,-787 -183,-1181l-3902 410 -102 -992 3863 -406 -148 -1135 -4246 442 -102 -992 4230 -440 -126 -1187 -4650 245 -50 -996 4606 -243 -94 -1139 -4989 259 -50 -996 4969 -258 -70 -1191 -5391 5 0 -996 5346 -5 -40 -1146 -5724 2 0 -996 5701 -2 -14 -1161 -6104 0 0 -1000 6104 0 13 -1151 -5715 -279 46 -996 5693 278c11,-379 23,-758 39,-1137l-5360 -253 46 -996 5359 253 70 -1190 -4974 -476 94 -992 4949 474 94 -1135 -4611 -431 90 -992 4614 432c39,-396 80,-791 125,-1185l-4225 -599 136 -988 4207 597 147 -1128 -3863 -535 136 -988 3868 536 181 -1176 -3484 -649 180 -980 3468 646 200 -1119 -3115 -568 176 -980 3126 570 237 -1164 -2746 -629 222 -972 2735 627c82,-369 165,-738 252,-1106l-2374 -529 214 -972 2393 533 301 -1183 -2009 -538 258 -964 2009 538 290 -1040 -2345 -636 258 -964 2366 641c114,-382 232,-762 351,-1142l-2681 -880 308 -950 2675 878 361 -1086 -3001 -991 312 -950 3015 995c132,-376 266,-751 403,-1124l-3311 -1284 360 -930 3300 1280 412 -1069 -3625 -1412 360 -930 3636 1416 457 -1104 -3908 -1755 406 -910 3895 1749 464 -1048 -4215 -1898 410 -910 4219 1900 509 -1080 -4465 -2285 454 -886 4447 2276 514 -1026 -4759 -2440 454 -886 4762 2441 560 -1054 -4977 -2869 496 -864 4959 2859 562 -1000 -5263 -3039 500 -864 5263 3039 594 -1000 -4831 -3114 540 -840 4812 3102 606 -968 -4495 -2905 540 -836 4494 2904 658 -998 -4080 -2932 582 -808 4057 2915 655 -941 -3753 -2704 582 -808 3749 2701 703 -963 -3358 -2681 622 -782 3336 2664 697 -908 -3045 -2439 626 -778 3036 2433 748 -928 -2674 -2369 660 -746 2649 2347 741 -876 -2372 -2111 664 -746 2362 2102 793 -893 -2030 -1999 700 -710 2001 1971c258,-281 519,-559 780,-836l-1740 -1726 704 -708 1725 1711 801 -821 -1486 -1486 708 -708 1486 1486 828 -809 -1656 -1804 734 -676 1644 1791 834 -778 -1918 -2072 730 -676 1923 2078 888 -789 -2050 -2425 762 -644 2042 2415c288,-248 578,-493 870,-737l-2299 -2705 762 -644 2305 2713 924 -747 -2389 -3083 790 -610 2383 3076 904 -696 -2624 -3372 790 -614 2635 3385 956 -700 -2669 -3779 816 -574 2665 3773 939 -653 -2890 -4077 812 -578 2902 4094c329,-221 660,-439 992,-655l-2886 -4507 840 -540 2885 4506c320,-205 642,-407 966,-607l-3092 -4816 840 -540 3104 4835 1045 -621 -3045 -5273 864 -500 3045 5273 953 -537 -2857 -4959 864 -496 2867 4976 1054 -562 -2443 -4762 886 -454 2441 4759 1025 -515 -2276 -4447 886 -454 2284 4465c359,-172 718,-344 1080,-511l-1900 -4219 910 -410 1898 4214 1046 -464 -1749 -3895 910 -406 1755 3907 1101 -457 -1415 -3635 930 -360 1411 3623 1067 -413 -1279 -3299 930 -360 1284 3311c373,-137 747,-273 1123,-405l-996 -3016 950 -312 991 3001 1086 -361 -877 -2675 950 -308 878 2679c379,-119 760,-237 1141,-351l-642 -2366 964 -262 637 2348 1126 -316 -539 -2008 964 -258 539 2009 1114 -284 -512 -2404 976 -208 506 2378 1116 -256 -581 -2755 976 -204 579 2748 1171 -239 -499 -3151 984 -156 494 3119 1126 -202 -550 -3500 984 -152 548 3488c393,-64 786,-125 1181,-183l-410 -3902 992 -102 406 3863 1135 -148 -442 -4246 992 -102 440 4230 1187 -126 -245 -4650 996 -50 243 4606 1139 -94 -259 -4989 996 -50 258 4969 1191 -70 -5 -5391 996 0 5 5346 1146 -40 -2 -5724 996 0 2 5701 1161 -14 0 -6104 1000 0 0 6104 1151 13 279 -5715 996 46 -278 5693c380,11 758,23 1137,39l253 -5360 996 46 -253 5359 1190 70 476 -4974 992 94 -474 4949 1135 94 431 -4611 992 90 -432 4614c396,39 791,80 1185,125l599 -4225 988 136 -597 4207 1128 147 535 -3863 988 136 -536 3868 1175 181 650 -3484 980 180 -647 3468 1120 200 568 -3115 980 176 -570 3126 1164 237 629 -2746 972 222 -627 2735c369,82 738,165 1106,252l530 -2374 972 214 -534 2393 1183 301 538 -2010 964 258 -538 2010 1040 290 636 -2345 964 258 -641 2366 1142 350 879 -2680 950 308 -877 2675 1086 361 991 -3001 950 312 -995 3015c376,132 751,266 1124,403l1284 -3311 930 360 -1280 3300 1069 412 1412 -3625 930 360 -1416 3636 1104 457 1755 -3908 910 406 -1749 3895c351,152 700,307 1048,464l1898 -4215 910 410 -1900 4219 1080 509 2285 -4465 886 454 -2276 4447 1026 514 2440 -4759 886 454 -2441 4762 1054 560 2869 -4977 864 496 -2859 4959 1000 562 3039 -5263 864 500 -3039 5263 1000 594 3114 -4831 840 540 -3102 4812 968 606 2905 -4495 836 540 -2904 4494 998 658 2932 -4080 808 582 -2915 4057 941 655 2704 -3753 808 582 -2701 3749 963 703 2681 -3358 782 622 -2664 3336 908 697 2439 -3045 778 626 -2433 3036 928 748 2369 -2674 746 660 -2347 2649 876 741 2111 -2372 746 664 -2102 2362 893 793 1999 -2030 710 700 -1971 2001 837 780 1726 -1740 708 704 -1712 1725 821 801 1486 -1486 708 708 -1486 1486 809 828 1803 -1656 676 734 -1790 1643 777 834 2073 -1918 676 730 -2079 1924c266,294 529,590 790,888l2424 -2049 644 762 -2414 2041c248,288 493,578 737,870l2705 -2299 644 762 -2713 2305 747 924 3083 -2389 610 790 -3076 2383 696 904 3372 -2624 614 790 -3385 2635c236,317 468,636 700,957l3779 -2670 574 816 -3773 2666 653 938 4077 -2890 578 812 -4094 2902c221,329 439,660 655,992l4507 -2886 540 840 -4506 2885 607 967 4816 -3093 540 840 -4835 3105 621 1044 5273 -3045 500 864 -5273 3045 537 954 4959 -2858 496 864 -4975 2868 561 1053 4762 -2442 454 886 -4759 2440 515 1025 4447 -2276 454 886 -4465 2284c172,359 344,719 511,1080l4219 -1900 410 910 -4214 1898 464 1046 3895 -1749 406 910 -3907 1754c155,366 307,735 457,1103l3636 -1416 360 930 -3624 1411 413 1067 3299 -1279 360 930 -3311 1284c137,373 273,747 405,1123l3016 -995 312 950 -3001 991 361 1085 2675 -877 308 950 -2679 878c119,379 237,760 351,1141l2366 -642 262 964 -2348 637 316 1126 2009 -539 258 964 -2010 539 284 1114 2404 -512 208 976 -2378 506 256 1116 2755 -582 204 976 -2748 580 239 1170 3151 -498 156 984 -3119 493 202 1127 3500 -550 152 984 -3488 548c64,393 125,787 183,1181l3902 -410 102 992 -3863 406 148 1135 4246 -442 102 992 -4230 440 126 1187 4650 -245 50 996 -4606 243 94 1139 4989 -259 50 996 -4969 258 70 1191 5391 -5 0 996 -5346 5 40 1146 5724 -2 0 996 -5701 2 14 1161 6104 0 0 1000 -6104 0 -13 1151 5715 279 -46 996 -5693 -278c-11,379 -23,758 -39,1137l5360 253 -46 996 -5359 -253 -70 1190 4974 476 -94 992 -4949 -474 -94 1135 4611 431 -90 992 -4614 -432c-39,396 -80,791 -125,1185l4225 599 -136 988 -4207 -597 -147 1128 3863 535 -136 988 -3868 -536 -181 1176 3484 649 -180 980 -3468 -646 -200 1119 3115 568 -176 980 -3126 -570 -237 1164 2746 629 -222 972 -2735 -627c-82,369 -165,738 -252,1106l2374 529 -214 972 -2393 -533 -301 1183 2009 538 -258 964 -2009 -538 -290 1040 2345 636 -258 964 -2366 -641c-114,382 -232,762 -351,1142l2681 880 -308 950 -2675 -878 -361 1086 3001 991 -312 950 -3015 -995c-132,376 -266,751 -403,1124l3311 1284 -360 930 -3300 -1280 -412 1069 3625 1412 -360 930 -3636 -1416 -457 1104 3908 1755 -406 910 -3895 -1749 -464 1048 4215 1898 -410 910 -4219 -1900 -509 1080 4465 2285 -454 886 -4447 -2276 -514 1026 4759 2440 -454 886 -4762 -2441 -560 1054 4977 2869 -496 864 -4959 -2859 -562 1000 5263 3039 -500 864 -5263 -3039 -594 1000 4831 3114 -540 840 -4812 -3102 -606 968 4495 2905 -540 836 -4494 -2904 -658 998 4080 2932 -582 808 -4057 -2915 -655 941 3753 2704 -582 808 -3749 -2701 -703 963 3358 2681 -622 782 -3336 -2664 -697 908 3045 2439 -626 778 -3036 -2433 -748 928 2674 2369 -660 746 -2649 -2347 -741 876 2372 2111 -664 746 -2362 -2102 -793 893 2030 1999 -700 710 -2001 -1971c-258,281 -519,559 -780,836l1740 1726 -704 708 -1725 -1711 -801 821 1486 1486 -708 708 -1486 -1486 -828 809 1656 1804 -734 676 -1644 -1791 -834 778 1918 2072 -730 676 -1923 -2078 -888 789 2050 2425 -762 644 -2042 -2415c-288,248 -578,493 -870,737l2299 2705 -762 644 -2305 -2713 -924 747 2389 3083 -790 610 -2383 -3076 -904 696 2624 3372 -790 614 -2635 -3385 -956 700 2669 3779 -816 574 -2665 -3773 -939 653 2890 4077 -812 578 -2902 -4094c-329,221 -660,439 -992,655l2886 4507 -840 540 -2885 -4506c-320,205 -642,407 -966,607l3092 4816 -840 540 -3104 -4835 -1045 621 3045 5273 -864 500 -3045 -5273 -953 537 2857 4959 -864 496 -2867 -4976 -1054 562 2443 4762 -886 454 -2441 -4759 -1025 515 2276 4447 -886 454 -2284 -4465c-359,172 -718,344 -1080,511l1900 4219 -910 410 -1898 -4214 -1046 464 1749 3895 -910 406 -1755 -3907 -1101 457 1415 3635 -930 360 -1411 -3623 -1067 413 1279 3299 -930 360 -1284 -3311c-373,137 -747,273 -1123,405l996 3016 -950 312 -991 -3001 -1086 361 877 2675 -950 308 -878 -2679c-379,119 -760,237 -1141,351l642 2366 -964 262 -637 -2348 -1126 316 539 2008 -964 258 -539 -2009 -1114 284 512 2404 -976 208 -506 -2378 -1116 256 581 2755 -976 204 -579 -2748 -1171 239 499 3151 -984 156 -494 -3119 -1126 202 550 3500 -984 152 -548 -3488c-393,64 -786,125 -1181,183l410 3902 -992 102 -406 -3863 -1135 148 442 4246 -992 102 -440 -4230 -1187 126 245 4650 -996 50 -243 -4606 -1139 94 259 4989 -996 50 -258 -4969 -1191 70 5 5391 -996 0 -5 -5346 -1146 40 2 5724 -996 0 -2 -5701 -1161 14zm-500 -1997c24530,0 46739,-9943 62813,-26017 16074,-16074 26017,-38283 26017,-62813 0,-24530 -9943,-46739 -26017,-62813 -16074,-16074 -38283,-26017 -62813,-26017 -24530,0 -46739,9943 -62813,26017 -16074,16074 -26017,38283 -26017,62813 0,24530 9943,46739 26017,62813 16074,16074 38283,26017 62813,26017zm89303 473c-22854,22853 -54428,36990 -89303,36990 -34875,0 -66449,-14137 -89303,-36990 -22853,-22854 -36990,-54428 -36990,-89303 0,-34875 14137,-66449 36990,-89303 22854,-22853 54428,-36990 89303,-36990 34875,0 66449,14137 89303,36990 22853,22854 36990,54428 36990,89303 0,34875 -14137,66449 -36990,89303zm-128673 -121995l13346 0 0 53187 -13346 0 0 -5622c-2605,2477 -5217,4261 -7836,5353 -2621,1092 -5461,1638 -8521,1638 -6868,0 -12808,-2664 -17822,-7993 -5013,-5328 -7519,-11951 -7519,-19871 0,-8213 2425,-14943 7275,-20190 4850,-5247 10742,-7871 17675,-7871 3190,0 6184,605 8984,1809 2799,1206 5387,3015 7764,5426l0 -5866zm-14029 10951l0 0c-4125,0 -7552,1459 -10280,4374 -2728,2917 -4093,6657 -4093,11219 0,4596 1388,8376 4165,11342 2778,2966 6196,4450 10257,4450 4190,0 7665,-1460 10426,-4376 2760,-2916 4142,-6737 4142,-11464 0,-4628 -1382,-8376 -4142,-11244 -2761,-2868 -6252,-4301 -10475,-4301zm29514 -31483l13345 0 0 73719 -13345 0 0 -73719zm15547 0l13346 0 0 20532 6271 0 0 11488 -6271 0 0 41699 -13346 0 0 -73719zm15353 34126l3685 0 0 39689 -3685 0 0 -39689zm35149 11054l0 28635 -3632 0 0 -4921c-1543,1877 -3277,3290 -5198,4237 -1921,947 -4023,1422 -6303,1422 -4054,0 -7514,-1470 -10383,-4410 -2869,-2938 -4304,-6512 -4304,-10724 0,-4122 1449,-7650 4344,-10581 2895,-2930 6377,-4395 10447,-4395 2352,0 4479,499 6384,1500 1902,1000 3574,2501 5013,4501l0 -5264 3632 0zm-14725 2816l0 0c-2051,0 -3944,505 -5679,1512 -1735,1009 -3115,2424 -4140,4247 -1025,1821 -1538,3749 -1538,5781 0,2017 517,3945 1550,5784 1033,1841 2424,3273 4167,4298 1744,1027 3616,1539 5612,1539 2018,0 3927,-509 5733,-1524 1803,-1017 3193,-2393 4166,-4128 972,-1734 1458,-3690 1458,-5862 0,-3312 -1091,-6082 -3273,-8308 -2181,-2225 -4867,-3339 -8056,-3339zm17197 25819l0 -39689 3682 0 0 15976c1543,-1894 3271,-3312 5181,-4250 1910,-940 4005,-1409 6284,-1409 4049,0 7506,1470 10372,4408 2866,2940 4299,6507 4299,10700 0,4141 -1447,7676 -4339,10607 -2893,2930 -6371,4395 -10438,4395 -2330,0 -4444,-501 -6336,-1500 -1894,-1002 -3568,-2502 -5023,-4501l0 5263 -3682 0zm14736 -2816l0 0c2049,0 3940,-504 5673,-1513 1733,-1009 3111,-2426 4136,-4251 1023,-1826 1535,-3755 1535,-5790 0,-2036 -517,-3973 -1548,-5816 -1034,-1842 -2421,-3277 -4163,-4304 -1742,-1026 -3602,-1539 -5580,-1539 -2013,0 -3925,513 -5736,1539 -1812,1027 -3204,2408 -4176,4146 -970,1737 -1457,3694 -1457,5870 0,3314 1090,6087 3269,8315 2179,2230 4862,3343 8047,3343zm-90805 7240l2620 0 0 14470 -2620 0 0 -1104c-511,486 -1024,837 -1538,1051 -514,215 -1072,321 -1672,321 -1349,0 -2515,-523 -3499,-1569 -983,-1046 -1476,-2346 -1476,-3900 0,-1612 476,-2933 1429,-3962 952,-1031 2108,-1546 3469,-1546 626,0 1214,119 1763,355 550,236 1058,592 1524,1065l0 -5181zm-2754 6180l0 0c-809,0 -1482,286 -2017,858 -536,573 -803,1306 -803,2202 0,902 272,1645 817,2226 545,582 1216,873 2013,873 822,0 1505,-286 2047,-859 541,-572 812,-1322 812,-2250 0,-907 -271,-1643 -812,-2206 -542,-563 -1228,-844 -2057,-844zm8673 -6449c459,0 853,167 1181,499 329,333 493,736 493,1209 0,467 -162,866 -488,1194 -325,331 -714,495 -1167,495 -466,0 -863,-168 -1191,-504 -329,-336 -493,-744 -493,-1223 0,-461 163,-855 488,-1181 325,-326 718,-489 1177,-489zm-1310 4299l0 0 2619 0 0 10440 -2619 0 0 -10440zm27573 2111l-2181 1200c-410,-429 -815,-727 -1215,-893 -400,-166 -870,-250 -1407,-250 -980,0 -1773,292 -2378,877 -605,584 -908,1333 -908,2247 0,887 292,1612 874,2175 583,562 1349,842 2296,842 1172,0 2085,-399 2738,-1199l2066 1414c-1120,1456 -2699,2184 -4740,2184 -1836,0 -3274,-544 -4313,-1631 -1040,-1087 -1559,-2361 -1559,-3818 0,-1012 252,-1942 757,-2793 506,-851 1211,-1520 2117,-2005 904,-487 1917,-730 3036,-730 1037,0 1967,206 2793,620 825,412 1499,999 2024,1760zm966 -2111l2246 0 0 1314c243,-518 565,-912 969,-1180 403,-268 844,-403 1324,-403 339,0 694,90 1065,269l-815 2255c-308,-154 -560,-231 -759,-231 -403,0 -744,250 -1022,749 -277,499 -416,1478 -416,2936l9 509 0 4222 -2601 0 0 -10440zm16228 5977l-8415 0c121,743 446,1333 974,1771 527,438 1201,657 2020,657 979,0 1819,-342 2524,-1026l2207 1036c-551,780 -1210,1358 -1977,1732 -768,375 -1680,561 -2735,561 -1638,0 -2972,-517 -4001,-1549 -1030,-1033 -1545,-2327 -1545,-3882 0,-1593 513,-2915 1540,-3967 1027,-1052 2314,-1579 3863,-1579 1643,0 2980,527 4010,1579 1029,1052 1545,2442 1545,4169l-10 498zm-2620 -2062l0 0c-173,-583 -513,-1055 -1023,-1420 -509,-365 -1101,-547 -1773,-547 -730,0 -1372,205 -1923,614 -345,255 -666,707 -960,1353l5679 0zm11842 -3915l2619 0 0 10440 -2619 0 0 -1104c-512,486 -1024,837 -1538,1051 -515,215 -1073,321 -1673,321 -1349,0 -2514,-523 -3498,-1569 -984,-1046 -1477,-2346 -1477,-3900 0,-1612 477,-2933 1429,-3962 952,-1031 2109,-1546 3470,-1546 626,0 1214,119 1763,355 549,236 1058,592 1524,1065l0 -1151zm-2754 2150l0 0c-810,0 -1482,286 -2018,858 -535,573 -803,1306 -803,2202 0,902 272,1645 818,2226 545,582 1215,873 2013,873 822,0 1504,-286 2046,-859 541,-572 813,-1322 813,-2250 0,-907 -272,-1643 -813,-2206 -542,-563 -1227,-844 -2056,-844zm8084 -5998l2620 0 0 3848 1554 0 0 2255 -1554 0 0 8185 -2620 0 0 -8185 -1342 0 0 -2255 1342 0 0 -3848zm-53922 0l2620 0 0 3848 1554 0 0 2255 -1554 0 0 8185 -2620 0 0 -8185 -1343 0 0 -2255 1343 0 0 -3848zm60792 -451c460,0 854,167 1182,499 328,333 493,736 493,1209 0,467 -163,866 -489,1194 -325,331 -714,495 -1166,495 -467,0 -864,-168 -1192,-504 -329,-336 -493,-744 -493,-1223 0,-461 163,-855 488,-1181 326,-326 717,-489 1177,-489zm-1310 4299l0 0 2620 0 0 10440 -2620 0 0 -10440zm3626 0l2669 0 2637 6160 2632 -6160 2655 0 -4442 10440 -1698 0 -4453 -10440zm12891 -4299c460,0 853,167 1182,499 328,333 493,736 493,1209 0,467 -163,866 -489,1194 -325,331 -714,495 -1167,495 -466,0 -863,-168 -1191,-504 -329,-336 -493,-744 -493,-1223 0,-461 163,-855 488,-1181 326,-326 717,-489 1177,-489zm-1310 4299l0 0 2620 0 0 10440 -2620 0 0 -10440zm5235 -3848l2621 0 0 3848 1554 0 0 2255 -1554 0 0 8185 -2621 0 0 -8185 -1342 0 0 -2255 1342 0 0 -3848zm4689 3848l2676 0 2712 6550 2992 -6550 2685 0 -6538 14259 -2706 0 2147 -4598 -3968 -9661z"/>
  <path fill="none" d="M28719 150000l-4012 0m64653 -105033l-2015 -3489m-42384 47923l-3503 -2022m-8606 31231l-3897 -1044m-163 29600l-4047 -199m4121 -2686l-4016 -189m4207 -2692l-4026 -386m4244 -2492l-4006 -375m4326 -2495l-4000 -567m4362 -2297l-3990 -553m4435 -2299l-3966 -741m4474 -2099l-3969 -725m4541 -2106l-3929 -899m4577 -1911l-3939 -879m15328 -28664l-3481 -2008m2150 4571l-3600 -1845m2282 4418l-3578 -1831m2367 4456l-3686 -1660m2496 4296l-3668 -1647m2583 4326l-3766 -1468m2706 4158l-3749 -1455m2793 4182l-3839 -1268m2910 4007l-3823 -1252m2994 4020l-3899 -1056m88900 -82004l-1045 -3897m-71174 57979l-3376 -2175m4932 -254l-3397 -2197m4964 -235l-3260 -2343m4936 -11l-3283 -2367m4961 13l-3137 -2505m4923 233l-3158 -2531m4944 260l-3004 -2661m4897 476l-3022 -2690m4916 503l-2859 -2816m4851 728l-2873 -2851m27494 -17057l-2172 -3382m-264 4940l-2181 -3406m-242 4975l-2323 -3277m-33 4951l-2334 -3303m-13 4987l-2467 -3170m190 4953l-2476 -3196m211 4988l-2599 -3057m413 4950l-2610 -3090m431 4985l-2726 -2944m633 4938l-2736 -2980m674 4952l-2839 -2838m85707 -32638l-2 -4048m-2888 4122l-5 -4020m-2876 4217l-210 -4038m-2672 4257l-211 -4020m-2660 4341l-417 -4015m-2450 4380l-421 -4006m-2433 4456l-626 -3985m-2216 4492l-631 -3983m-2200 4561l-833 -3943m-1983 4594l-840 -3948m-28696 15367l-2006 -3482m4568 2146l-1845 -3597m4417 2278l-1831 -3577m4454 2363l-1660 -3684m4293 2493l-1648 -3666m4324 2580l-1468 -3765m4155 2705l-1454 -3751m4180 2789l-1266 -3838m4004 2910l-1254 -3824m4019 2990l-1058 -3897m35261 241535l0 4012m-105033 -64653l-3489 2015m47923 42384l-2022 3503m31231 8606l-1044 3897m29600 163l-199 4047m-2686 -4121l-189 4016m-2692 -4207l-386 4026m-2492 -4244l-375 4006m-2495 -4326l-567 4000m-2297 -4362l-553 3990m-2299 -4435l-741 3966m-2099 -4474l-725 3969m-2106 -4541l-899 3929m-1911 -4577l-879 3939m-28664 -15328l-2008 3481m4571 -2150l-1845 3600m4418 -2282l-1831 3578m4456 -2367l-1660 3686m4296 -2496l-1647 3668m4326 -2583l-1468 3766m4158 -2706l-1455 3749m4182 -2793l-1268 3839m4007 -2910l-1252 3823m4020 -2994l-1056 3899m-82004 -88900l-3897 1045m57979 71174l-2175 3376m-254 -4932l-2197 3397m-235 -4964l-2343 3260m-11 -4936l-2367 3283m13 -4961l-2505 3137m233 -4923l-2531 3158m260 -4944l-2661 3004m476 -4897l-2690 3022m503 -4916l-2816 2859m728 -4851l-2851 2873m-17057 -27494l-3382 2172m4940 264l-3406 2181m4975 242l-3277 2323m4951 33l-3303 2334m4987 13l-3170 2467m4953 -190l-3196 2476m4988 -211l-3057 2599m4950 -413l-3090 2610m4985 -431l-2944 2726m4938 -633l-2980 2736m4952 -674l-2838 2839m-32638 -85707l-4048 2m4122 2888l-4020 5m4217 2876l-4038 210m4257 2672l-4020 211m4341 2660l-4015 417m4380 2450l-4006 421m4456 2433l-3985 626m4492 2216l-3983 631m4561 2200l-3943 833m4594 1983l-3948 840m15367 28696l-3482 2006m2146 -4568l-3597 1845m2278 -4417l-3577 1831m2363 -4454l-3684 1660m2493 -4293l-3666 1648m2580 -4324l-3765 1468m2705 -4155l-3751 1454m2789 -4180l-3838 1266m2910 -4004l-3824 1254m2990 -4019l-3897 1058m241535 -35261l4012 0m-64653 105033l2015 3489m42384 -47923l3503 2022m8606 -31231l3897 1044m163 -29600l4047 199m-4121 2686l4016 189m-4207 2692l4026 386m-4244 2492l4006 375m-4326 2495l4000 567m-4362 2297l3990 553m-4435 2299l3966 741m-4474 2099l3969 725m-4541 2106l3929 899m-4577 1911l3939 879m-15328 28664l3481 2008m-2150 -4571l3600 1845m-2282 -4418l3578 1831m-2367 -4456l3686 1660m-2496 -4296l3668 1647m-2583 -4326l3766 1468m-2706 -4158l3749 1455m-2793 -4182l3839 1268m-2910 -4007l3823 1252m-2994 -4020l3899 1056m-88900 82004l1045 3897m71174 -57979l3376 2175m-4932 254l3397 2197m-4964 235l3260 2343m-4936 11l3283 2367m-4961 -13l3137 2505m-4923 -233l3158 2531m-4944 -260l3004 2661m-4897 -476l3022 2690m-4916 -503l2859 2816m-4851 -728l2873 2851m-27494 17057l2172 3382m264 -4940l2181 3406m242 -4975l2323 3277m33 -4951l2334 3303m13 -4987l2467 3170m-190 -4953l2476 3196m-211 -4988l2599 3057m-413 -4950l2610 3090m-431 -4985l2726 2944m-633 -4938l2736 2980m-674 -4952l2839 2838m-85707 32638l2 4048m2888 -4122l5 4020m2876 -4217l210 4038m2672 -4257l211 4020m2660 -4341l417 4015m2450 -4380l421 4006m2433 -4456l626 3985m2216 -4492l631 3983m2200 -4561l833 3943m1983 -4594l840 3948m28696 -15367l2006 3482m-4568 -2146l1845 3597m-4417 -2278l1831 3577m-4454 -2363l1660 3684m-4293 -2493l1648 3666m-4324 -2580l1468 3765m-4155 -2705l1454 3751m-4180 -2789l1266 3838m-4004 -2910l1254 3824m-4019 -2990l1058 3897m-35261 -241535l0 -4012m105033 64653l3489 -2015m-47923 -42384l2022 -3503m-31231 -8606l1044 -3897m-29600 -163l199 -4047m2686 4121l189 -4016m2692 4207l386 -4026m2492 4244l375 -4006m2495 4326l567 -4000m2297 4362l553 -3990m2299 4435l741 -3966m2099 4474l725 -3969m2106 4541l899 -3929m1911 4577l879 -3939m28664 15328l2008 -3481m-4571 2150l1845 -3600m-4418 2282l1831 -3578m-4456 2367l1660 -3686m-4296 2496l1647 -3668m-4326 2583l1468 -3766m-4158 2706l1455 -3749m-4182 2793l1268 -3839m-4007 2910l1252 -3823m-4020 2994l1056 -3899m82004 88900l3897 -1045m-57979 -71174l2175 -3376m254 4932l2197 -3397m235 4964l2343 -3260m11 4936l2367 -3283m-13 4961l2505 -3137m-233 4923l2531 -3158m-260 4944l2661 -3004m-476 4897l2690 -3022m-503 4916l2816 -2859m-728 4851l2851 -2873m17057 27494l3382 -2172m-4940 -264l3406 -2181m-4975 -242l3277 -2323m-4951 -33l3303 -2334m-4987 -13l3170 -2467m-4953 190l3196 -2476m-4988 211l3057 -2599m-4950 413l3090 -2610m-4985 431l2944 -2726m-4938 633l2980 -2736m-4952 674l2838 -2839m32638 85707l4048 -2m-4122 -2888l4020 -5m-4217 -2876l4038 -210m-4257 -2672l4020 -211m-4341 -2660l4015 -417m-4380 -2450l4006 -421m-4456 -2433l3985 -626m-4492 -2216l3983 -631m-4561 -2200l3943 -833m-4594 -1983l3948 -840m-15367 -28696l3482 -2006m-2146 4568l3597 -1845m-2278 4417l3577 -1831m-2363 4454l3684 -1660m-2493 4293l3666 -1648m-2580 4324l3765 -1468m-2705 4155l3751 -1454m-2789 4180l3838 -1266m-2910 4004l3824 -1254m-2990 4019l3897 -1058"/>
  <rect fill="none" width="300000" height="300000"/>
 </g>
</svg>
