<?xml version="1.0" encoding="UTF-8"?>
<!DOCTYPE svg PUBLIC "-//W3C//DTD SVG 1.1//EN" "http://www.w3.org/Graphics/SVG/1.1/DTD/svg11.dtd">
<!-- Creator: CorelDRAW X7 -->
<svg xmlns="http://www.w3.org/2000/svg" xml:space="preserve" width="130.704mm" height="66.675mm" version="1.1" shape-rendering="geometricPrecision" text-rendering="geometricPrecision" image-rendering="optimizeQuality" fill-rule="evenodd" clip-rule="evenodd"
viewBox="0 0 1274938 650373"
 xmlns:xlink="http://www.w3.org/1999/xlink">
 <g id="Layer_x0020_1">
  <metadata id="CorelCorpID_0Corel-Layer"/>
  <rect fill="none" width="1274939" height="650373"/>
  <g id="_721989952">
   <path fill="black" d="M382316 468324c1098,143 2565,332 3615,292l252 -41c515,-84 1874,-364 2399,-715 15,-55 27,-114 36,-158 207,-1015 367,-2388 38,-3431 -3693,-7647 -8978,-13304 -17529,-15041 -1712,-348 -4703,-1034 -5777,796l-142 242c-56,126 -113,251 -170,376 -131,1212 -46,2398 388,3562 3828,6830 9034,12404 16890,14118zm-35200 -27706c-2150,-4824 -6990,-6757 -12147,-7807 -5695,-1158 -12011,-1332 -16213,3279l-259 285c2722,5037 7373,7371 12816,8538 2129,248 4323,450 6466,450 2123,-237 7121,-983 8819,-2195l518 -2550zm-44426 -7013c-979,-2094 -2956,-2834 -5127,-3276 -2882,-586 -5871,-758 -8770,-188l-1911 374 -445 -90 -4200 1764c-2971,1248 -7431,3512 -8465,6952 -6,370 0,751 12,1128 564,1674 2043,2057 3885,2432l1521 310c4498,918 8990,157 13265,-1382 3720,-1339 6961,-3364 9260,-6638l975 -1386zm-24552 -20831l175 -862 6233 -1347c12717,-2744 25875,-4045 38851,-2919 -3430,-4138 -5581,-9160 -3198,-14686 2775,-6435 8886,-7559 14783,-9288 203,-60 467,-137 752,-226 -82,-1586 -306,-3401 -407,-4504 -371,-4064 -815,-8680 153,-12666l119 -492 170 -477c3779,-10619 17763,-10954 26002,-5856l382 237 359 270c5835,4400 6933,10862 4648,17466 -1669,4823 -3844,7665 -7030,11289 -217,449 -409,1001 -590,1438 -2507,6070 -6411,9359 -11231,11518 1772,2021 3169,4314 3784,7082 361,1624 376,3264 194,4900 7039,2511 14046,5416 20483,8931l154 85 151 89c15456,9178 29192,20980 38079,36263 2816,-2947 5805,-5637 8860,-7641 2868,-1884 6849,-3746 9958,-5230 5648,-2695 13268,-6656 19225,-2599 4561,3106 5463,8848 2912,13482 -528,961 -1173,1863 -1845,2730 -1248,1608 -2621,3156 -3989,4665 -1719,1899 -3507,3725 -5166,5533 -2530,2877 -3078,3852 -4430,7429 -3773,9978 -8089,21869 -13693,31066 -2243,6603 -8266,10177 -15058,11494l-1903 369 -1899 -387c-1348,-274 -2579,-761 -3710,-1407 -615,450 -1235,884 -1855,1295l-338 225 -354 195c-23228,12776 -50169,13096 -75584,7920l-4560 -928c-17839,-3633 -34833,-9986 -50598,-19093 -12947,-7478 -25753,-17524 -32660,-31048 -4923,-1292 -8100,-5501 -10614,-9678l-1220 -2029 -155 -2363c-529,-8103 -996,-16273 -1096,-24394 -51,-4257 -91,-9308 596,-13649 -12,-216 -24,-432 -36,-647 -460,-8409 -1666,-11306 -4605,-18961 -378,-920 -762,-1820 -1104,-2756 -1835,-5022 -1943,-10660 3230,-14156 4324,-2923 9385,-1916 13038,1340 11703,10430 17586,21073 21842,34002 6349,-4115 13153,-7834 20190,-10333l2553 -906 1052 215z"/>
   <path fill="black" stroke="black" stroke-width="1950.87" d="M191053 182442l924045 0 0 274616c0,17167 -14046,31214 -31214,31214l-924045 0 0 -274616c0,-17168 14046,-31214 31214,-31214z"/>
   <path fill="red" d="M917581 284664l-14198 11332c-171,-2321 -351,-4641 -536,-6958l6610 -6090c2667,768 5403,1321 8124,1716z"/>
   <g>
    <path fill="#00CCFF" d="M716978 182442l92955 119473c-54,1849 -96,3698 -124,5547l-112352 -125020 19521 0z"/>
    <path fill="#9900CC" d="M753350 182442l57269 103505 -1 10c-141,2674 -274,5358 -393,8049l-72493 -111564 15618 0z"/>
    <path fill="red" d="M783903 182442l34329 94181c-696,367 -1389,716 -2081,1047l-2501 1196 -43106 -96424 13359 0z"/>
    <path fill="#00CCFF" d="M811148 182442l17227 87827c-1548,1103 -3110,2163 -4677,3161l-24649 -90988 12099 0z"/>
    <polygon fill="red" points="1045660,182442 953380,256092 966747,230165 1018546,182442 "/>
    <path fill="yellow" d="M1115098 189230l-210873 120111c-97,-1929 -207,-3860 -327,-5791l181416 -121108 29784 0 0 6788z"/>
    <path fill="red" d="M1115098 241221l-210523 79703c57,-1745 15,-3505 -51,-5121l210574 -97285 0 22703z"/>
    <path fill="fuchsia" d="M1115098 287374l-215054 44955 1700 -1198 1073 -1859c390,-676 700,-1453 944,-2298l211337 -60072 0 20472z"/>
   </g>
   <g>
    <path fill="yellow" fill-rule="nonzero" d="M674223 223004c-6999,36 -13511,1522 -19535,4458 -6025,2938 -11497,6734 -16419,11388 -4921,4655 -9269,9790 -13042,15403 -3774,5613 -6900,11180 -9382,16704 -4314,9591 -6199,15763 -5656,18510 543,2749 2457,2960 5742,634 3285,-2326 7377,-6741 12277,-13248 4901,-6507 9625,-14158 14175,-22955 1120,-2061 2333,-4201 3640,-6421 1305,-2221 2769,-4288 4388,-6204 1618,-1913 3506,-3588 5665,-5020 2159,-1432 4574,-2450 7246,-3053 3214,-669 6003,-600 8367,208 2366,809 4245,2123 5635,3944 1390,1820 2150,4096 2280,6825 129,2731 -504,5692 -1896,8884 -629,1589 -1499,3446 -2612,5573 -1112,2128 -2236,4430 -3376,6903 -1136,2475 -2202,4975 -3198,7500 -994,2524 -1765,4919 -2309,7184 -718,3109 -276,4462 1321,4059 1598,-402 3610,-1919 6033,-4551 4609,-4961 8742,-10171 12396,-15631 3656,-5462 7187,-10529 10594,-15205 713,-911 1501,-1489 2363,-1732 863,-243 1691,-208 2485,106 794,316 1447,888 1961,1717 514,830 710,1869 590,3121 -502,4866 -2090,10658 -4767,17371 -2678,6715 -6027,13270 -10047,19669 -4021,6398 -8470,12095 -13350,17088 -4880,4994 -9714,8127 -14501,9402 -3196,804 -6268,941 -9217,411 -2950,-531 -5555,-1619 -7817,-3263 -2261,-1645 -4172,-3779 -5730,-6403 -1558,-2624 -2536,-5558 -2935,-8806 -315,-2570 -394,-5169 -237,-7798 159,-2628 486,-5277 982,-7948 -1818,4205 -3730,8766 -5736,13682 -2005,4914 -4399,9465 -7181,13652 -2780,4186 -6042,7540 -9783,10059 -3743,2519 -8259,3485 -13548,2899 -5983,-638 -10433,-2770 -13351,-6394 -2915,-3624 -4846,-7884 -5792,-12780 -943,-4897 -1093,-10028 -447,-15394 645,-5367 1606,-10119 2884,-14258 3219,-10694 7885,-20777 13999,-30247 6115,-9470 13400,-17814 21850,-25031 3846,-3356 8235,-6470 13170,-9341 4933,-2871 10056,-5047 15368,-6521 5311,-1476 10668,-2032 16068,-1666 5401,367 10557,2103 15469,5208 1941,1272 3203,2868 3781,4789 578,1919 604,3804 76,5654 -528,1850 -1567,3454 -3115,4811 -1551,1359 -3494,2042 -5826,2054z"/>
    <path fill="yellow" fill-rule="nonzero" d="M481984 304693c2579,-4709 5065,-9339 7458,-13892 2394,-4549 4675,-9189 6841,-13919 2164,-4728 4205,-9647 6117,-14758 1914,-5109 3612,-10570 5095,-16383 -2328,-2185 -3758,-5443 -4289,-9771 -349,-2841 87,-5710 1312,-8607 1223,-2895 2902,-5436 5038,-7621 2134,-2185 4569,-3891 7300,-5119 2733,-1228 5553,-1747 8461,-1554 3617,379 6514,1603 8690,3670 2177,2068 3574,4505 4193,7312 3516,667 6915,1520 10202,2560 3285,1038 6278,2489 8979,4355 2700,1865 4906,4169 6617,6911 1710,2743 2678,6160 2906,10251 195,3822 -224,7684 -1255,11587 -1032,3902 -2405,7813 -4121,11731 -1716,3918 -3516,7710 -5401,11373 -1884,3666 -3575,7237 -5070,10717 -1070,2465 -1917,4801 -2538,7006 -621,2203 -765,3835 -430,4892 337,1058 1224,1292 2662,703 1438,-588 3750,-2451 6935,-5587 5268,-5180 10074,-10782 14415,-16808 4340,-6024 8682,-12052 13023,-18076 831,-1063 1661,-2126 2492,-3189 831,-1064 1838,-1806 3022,-2225 1319,-438 2393,-363 3220,221 828,585 1374,1410 1644,2477 268,1065 -16,2953 -849,5665 -836,2711 -1856,5582 -3064,8615 -1206,3032 -2467,5898 -3784,8600 -1316,2703 -2245,4637 -2789,5801 -1986,3953 -4313,8220 -6976,12804 -2664,4584 -5745,8841 -9245,12773 -3499,3931 -7399,7122 -11698,9572 -4300,2451 -9011,3510 -14132,3177 -5950,-367 -10767,-2695 -14452,-6980 -3684,-4284 -5883,-9335 -6597,-15151 -565,-4601 16,-9650 1744,-15149 1728,-5499 3688,-10785 5880,-15862 2191,-5075 4239,-9651 6141,-13730 1903,-4078 2728,-7132 2479,-9161 -132,-1082 -1095,-1651 -2886,-1705 -1792,-56 -3246,-151 -4362,-289 -2002,3815 -4163,7755 -6478,11815 -2317,4060 -4676,8058 -7077,11992 -2400,3935 -4847,7770 -7340,11509 -2493,3740 -4851,7187 -7073,10343 -4103,5722 -8006,10287 -11707,13694 -3701,3407 -6676,5454 -8927,6142 -2250,688 -3533,22 -3850,-1999 -316,-2021 857,-5599 3524,-10733z"/>
    <path fill="yellow" fill-rule="nonzero" d="M396961 315134c2579,-4711 5065,-9341 7458,-13893 2394,-4550 4675,-9190 6841,-13919 2164,-4728 4205,-9648 6117,-14758 1914,-5110 3612,-10570 5096,-16383 -2329,-2185 -3759,-5444 -4290,-9772 -349,-2840 88,-5709 1312,-8606 1223,-2896 2902,-5437 5038,-7622 2134,-2184 4569,-3891 7300,-5119 2733,-1227 5553,-1745 8461,-1554 3617,380 6514,1604 8690,3670 2177,2068 3574,4505 4193,7313 3516,666 6915,1520 10202,2559 3285,1038 6278,2489 8979,4356 2700,1865 4906,4168 6617,6911 1710,2742 2678,6159 2906,10251 195,3821 -224,7683 -1255,11586 -1032,3902 -2405,7813 -4121,11731 -1716,3918 -3516,7711 -5401,11374 -1884,3665 -3575,7236 -5070,10717 -1070,2464 -1917,4801 -2538,7005 -621,2205 -765,3836 -430,4893 338,1058 1224,1292 2662,702 1438,-587 3750,-2451 6935,-5587 5268,-5179 10074,-10781 14415,-16808 4340,-6024 8682,-12050 13023,-18076 831,-1063 1661,-2126 2492,-3189 831,-1064 1838,-1806 3022,-2225 1319,-438 2393,-362 3220,221 828,585 1374,1412 1644,2477 268,1065 -16,2953 -849,5666 -836,2711 -1856,5582 -3064,8614 -1206,3032 -2467,5899 -3784,8602 -1316,2702 -2245,4635 -2789,5800 -1986,3952 -4312,8219 -6976,12803 -2664,4584 -5745,8842 -9245,12774 -3499,3930 -7399,7121 -11698,9571 -4300,2451 -9011,3511 -14132,3178 -5950,-367 -10767,-2695 -14452,-6980 -3683,-4284 -5883,-9336 -6598,-15152 -564,-4600 18,-9650 1745,-15148 1728,-5500 3688,-10786 5880,-15861 2191,-5077 4239,-9652 6141,-13731 1903,-4079 2728,-7132 2479,-9161 -132,-1083 -1095,-1651 -2886,-1706 -1792,-56 -3246,-151 -4361,-289 -2003,3816 -4164,7756 -6479,11815 -2317,4060 -4676,8059 -7077,11993 -2400,3934 -4847,7770 -7340,11508 -2493,3740 -4851,7188 -7073,10344 -4103,5721 -8006,10286 -11707,13694 -3701,3406 -6676,5453 -8927,6141 -2250,689 -3533,22 -3850,-1999 -316,-2020 857,-5598 3524,-10731z"/>
    <path fill="yellow" fill-rule="nonzero" d="M395412 257238c-6999,36 -13511,1522 -19535,4458 -6025,2938 -11498,6734 -16420,11388 -4920,4655 -9267,9790 -13040,15402 -3775,5614 -6901,11180 -9383,16704 -4313,9592 -6199,15764 -5657,18511 544,2749 2458,2959 5743,634 3285,-2326 7377,-6742 12277,-13249 4900,-6506 9624,-14157 14175,-22955 1120,-2060 2333,-4200 3640,-6420 1305,-2221 2768,-4289 4388,-6204 1619,-1914 3506,-3588 5665,-5020 2159,-1432 4575,-2451 7246,-3053 3215,-669 6002,-600 8367,207 2366,810 4245,2124 5635,3944 1391,1820 2150,4096 2280,6825 129,2732 -504,5693 -1896,8885 -629,1589 -1499,3446 -2612,5573 -1111,2128 -2237,4429 -3375,6902 -1137,2476 -2203,4975 -3198,7501 -994,2524 -1766,4919 -2310,7184 -718,3108 -276,4462 1320,4058 1600,-401 3611,-1918 6034,-4550 4608,-4961 8741,-10171 12395,-15631 3656,-5462 7187,-10529 10596,-15205 712,-911 1500,-1489 2363,-1732 861,-243 1690,-208 2484,106 794,316 1448,887 1961,1717 514,829 710,1869 590,3121 -502,4866 -2090,10658 -4768,17371 -2677,6715 -6026,13270 -10047,19669 -4019,6398 -8469,12094 -13349,17088 -4881,4994 -9714,8127 -14500,9402 -3197,804 -6269,941 -9218,411 -2950,-531 -5555,-1619 -7817,-3263 -2261,-1645 -4172,-3779 -5730,-6403 -1557,-2625 -2536,-5559 -2935,-8806 -315,-2570 -394,-5170 -237,-7799 159,-2627 486,-5277 982,-7947 -1817,4205 -3730,8766 -5737,13682 -2004,4914 -4397,9465 -7180,13652 -2781,4186 -6043,7539 -9783,10059 -3743,2518 -8259,3485 -13548,2899 -5984,-638 -10433,-2771 -13351,-6394 -2916,-3624 -4846,-7885 -5791,-12781 -944,-4897 -1095,-10027 -448,-15393 645,-5367 1607,-10119 2884,-14258 3218,-10694 7885,-20777 14000,-30247 6114,-9470 13399,-17814 21849,-25032 3846,-3355 8234,-6469 13170,-9341 4934,-2870 10056,-5046 15368,-6521 5311,-1475 10668,-2031 16068,-1665 5401,367 10557,2102 15469,5207 1941,1273 3202,2869 3781,4789 578,1920 605,3805 76,5654 -527,1851 -1568,3454 -3116,4812 -1550,1359 -3493,2042 -5825,2054z"/>
    <path fill="yellow" fill-rule="nonzero" d="M312712 237937c-10212,-394 -20257,1389 -30138,5350 -9882,3959 -19195,9187 -27942,15686 -8745,6497 -16664,13856 -23757,22072 -7092,8218 -13023,16396 -17791,24534 -1375,2229 -2860,4950 -4456,8167 -1595,3217 -2867,6566 -3813,10047 -945,3480 -1354,6861 -1228,10140 129,3281 1307,6157 3532,8631 1923,2235 4697,3302 8325,3199 3625,-101 7392,-735 11299,-1903 3908,-1165 7606,-2648 11093,-4451 3485,-1800 6193,-3231 8122,-4293 1743,-8178 4086,-15950 7027,-23314 1121,-3158 2685,-6921 4688,-11286 2006,-4365 4381,-8502 7128,-12411 2747,-3906 5844,-7205 9291,-9894 3446,-2688 7163,-4004 11152,-3943 3703,-44 6494,1433 8371,4430 1880,2996 2316,6546 1308,10652 -597,2957 -1568,5961 -2909,9009 -1342,3048 -2858,6085 -4548,9106 -1688,3023 -3491,5957 -5407,8800 -1916,2845 -3697,5397 -5342,7659 -6424,15895 -11319,31943 -14685,48150 -375,1418 -819,2845 -1329,4282 -509,1435 -1180,2684 -2011,3748 -830,1063 -1864,1877 -3099,2440 -1234,564 -2697,675 -4388,333 -1976,-443 -3521,-1559 -4633,-3345 -1112,-1786 -1918,-3883 -2421,-6293 -501,-2411 -838,-4876 -1010,-7395 -172,-2519 -240,-4742 -202,-6669 -3674,2510 -7516,4767 -11526,6770 -4012,2004 -8063,3394 -12157,4170 -4092,777 -8226,942 -12401,494 -4174,-449 -8329,-1862 -12466,-4238 -5319,-3055 -9465,-6904 -12439,-11552 -2973,-4647 -4932,-9693 -5875,-15139 -944,-5444 -1054,-11096 -330,-16953 721,-5854 2002,-11367 3839,-16537 2348,-6604 5540,-13314 9579,-20125 4038,-6814 8680,-13459 13926,-19939 5248,-6481 11020,-12580 17322,-18297 6301,-5717 12821,-10775 19558,-15172 6740,-4398 13640,-8026 20705,-10884 7063,-2859 14054,-4645 20970,-5357 2976,-364 6200,-383 9674,-53 3473,328 6852,1012 10139,2049 3285,1040 6316,2522 9093,4446 2776,1925 5032,4360 6767,7305 893,1676 969,3417 230,5225 -740,1806 -2352,2658 -4835,2549z"/>
   </g>
   <path fill="black" d="M838742 377739c852,-1325 1729,-2632 2623,-3925 2727,-3937 5804,-7612 9201,-10986 3435,-3414 7213,-6451 11296,-9053 4380,-2789 9145,-4782 14192,-6001 6427,-1553 12913,-1349 19244,572 6727,2044 12309,5993 16555,11594 2476,3266 4367,6849 5542,10684 2099,-3669 4358,-7246 6777,-10715 3361,-4816 6952,-9503 10737,-13749 3986,-4652 9367,-7519 15569,-7292 4936,179 9502,1829 13353,4928 3897,3138 6473,7322 7657,12183 117,482 214,962 293,1441 3352,-4949 6714,-9887 10061,-14839 3274,-4845 7972,-8118 13799,-8949 4884,-697 9709,100 14014,2524 4234,2384 7396,5962 9399,10385 2486,5489 2071,11362 -440,16593 -1857,4056 -3631,8151 -5326,12278 427,-273 873,-525 1337,-754 3477,-1719 7387,-2035 10997,-520 879,368 1691,827 2431,1361 2165,-7616 4646,-15143 7464,-22542 3874,-10170 8782,-19892 14617,-29077 2109,-3320 4462,-6500 6944,-9549 2978,-3660 6317,-7005 9953,-10012 3844,-3180 8103,-5784 12744,-7626 5307,-2108 10905,-2603 16472,-1320 3489,804 6593,2530 9058,5132 2163,2280 3754,4982 4607,8010 880,3122 893,6348 106,9495 -921,3693 -3025,6832 -5826,9065 -5058,4229 -9769,8856 -14139,13793 -4627,5228 -9018,10664 -13163,16283 -4220,5721 -8252,11582 -12085,17569 -3743,5845 -7451,11715 -11111,17613 -439,758 -900,1509 -1359,2255 -909,1475 -1960,2857 -3116,4147 -575,642 -1185,1251 -1831,1818 850,614 1663,1294 2435,2039 3550,3424 5702,7786 6651,12601 1038,5270 275,10513 -1816,15431 -1580,3719 -4121,6817 -7283,9304 -3092,2432 -6607,4141 -10448,4988 -4132,913 -8321,644 -12319,-731 -4857,-1670 -8535,-5151 -11209,-9453 -756,-1215 -1364,-2487 -1833,-3805 -4001,5424 -8358,10584 -13153,15330 -6185,6122 -13154,11274 -20776,15426 -3715,5929 -8099,11385 -13143,16256 -2797,2701 -5986,4990 -9329,6965 -3631,2145 -7507,3822 -11566,4972 -4305,1220 -8739,1666 -13199,1252 -5270,-491 -10046,-2570 -14129,-5931 -3359,-2766 -5978,-6211 -7499,-10305 -1362,-3663 -1881,-7502 -1533,-11394 321,-3623 1293,-7121 2806,-10426 1305,-2853 2963,-5506 4956,-7920 -1151,-795 -2239,-1691 -3254,-2690 -143,-142 -287,-285 -427,-429 -731,819 -1477,1626 -2236,2421l-135 140c-3278,3294 -6810,6324 -10537,9097 -3943,2934 -8173,5446 -12647,7479 -4550,2069 -9328,3537 -14259,4352 -5406,893 -10846,633 -16187,-554 -6057,-1345 -11823,-3737 -16633,-7722 -2322,-1923 -4394,-4072 -6181,-6438 -1232,1808 -2505,3587 -3823,5334 -3105,4116 -6660,7988 -10782,11107 -3113,2355 -6587,4099 -10324,5216 -3818,1143 -7768,1524 -11726,1013 -4112,-530 -7937,-2045 -11352,-4395 -3759,-2588 -6556,-6133 -8577,-10195 -1881,-3785 -3057,-7819 -3411,-12032 -191,-2279 -417,-4553 -680,-6827 -577,-124 -1173,-199 -1699,-247 -701,-20 -1391,-93 -2067,-217 -1247,2973 -2313,6025 -3137,9142 -803,3039 -1354,6396 -1061,9545 588,6353 -1180,12358 -5829,16828 -5133,4935 -11991,5829 -18730,4284 -3881,-890 -7230,-2666 -9844,-5226 -4561,4588 -9984,8498 -16321,10147 -3910,1019 -7930,1221 -11911,504 -3829,-688 -7411,-2154 -10560,-4445 -1681,-1223 -3188,-2627 -4524,-4183 -2735,3814 -6036,7146 -9950,9781 -5333,3591 -11510,4724 -17853,4036 -6332,-688 -12215,-2984 -16574,-7610 -728,817 -1479,1614 -2252,2389 -3211,3224 -6836,5976 -10852,8121 -4509,2407 -9416,3674 -14532,3771 -7001,129 -13628,-1734 -19210,-6015 -5774,-4428 -9115,-10680 -10530,-17754 -652,-3266 -864,-6634 -759,-10008 -2199,3566 -4287,7202 -6301,10873 -2919,5320 -6579,10158 -11069,14250 -3614,3294 -8021,5424 -12921,5805 -4801,373 -9371,-908 -13456,-3425l-164 -105c-3415,-2200 -6283,-5050 -8310,-8586 -1640,-2860 -2744,-5953 -3323,-9188 -447,1164 -883,2330 -1309,3501 -962,2641 -1827,5311 -2588,8018 -403,1434 -656,3056 -355,4536l45 229c766,4268 92,8516 -2192,12218 -2089,3387 -5123,5909 -8860,7280 -3465,1272 -7121,1466 -10716,629 -4527,-1056 -8106,-3924 -10409,-7927 -2773,-4604 -4394,-9708 -4898,-15063 -458,-4853 -323,-9733 355,-14559 653,-4672 1673,-9283 3037,-13797 1175,-3886 2437,-7755 3853,-11560 3822,-10269 8494,-20194 13972,-29684 5472,-9481 11703,-18495 18641,-26960 2674,-3263 5437,-6462 8230,-9625 3509,-3978 7404,-7595 11671,-10748 4428,-3275 9318,-5781 14628,-7270 6428,-1805 12871,-1087 18888,1778l186 92c4841,2433 8878,5996 11344,10877 1087,2151 1903,4396 2463,6708 2819,-3714 5837,-7280 9078,-10628 4324,-4467 9139,-8456 14475,-11657 5384,-3230 11249,-5336 17483,-6102 6730,-826 13091,863 18230,5331 4687,4080 7559,9397 8316,15565 443,3614 325,7253 -302,10837 -572,3271 -1428,6486 -2539,9614 -332,933 -677,1860 -1035,2783 3472,-4020 7243,-7779 11296,-11264 3879,-3336 8068,-6290 12490,-8864 4773,-2776 9852,-4952 15174,-6431 5452,-1515 11089,-2113 16735,-1728 6314,428 12221,2469 17553,5874 3487,2227 6061,5449 7257,9421 847,2811 1024,5710 495,8558 2874,-7252 6011,-14404 9398,-21442 1851,-3845 3777,-7659 5731,-11454 2447,-4752 5164,-9362 8140,-13804 2999,-4477 6420,-8682 10327,-12401 4302,-4095 9609,-7117 15611,-7644l221 -17c6996,-456 13293,2065 17702,7563 3980,4961 5623,10919 4844,17226l-19 163 -26 161c-289,1845 -723,3657 -1286,5427 1852,-192 3724,-229 5605,-95 5526,397 10488,2645 14754,6123 4706,3837 7926,8846 8872,14880 30,192 57,383 85,575zm-105053 28506c881,-2559 1795,-5106 2741,-7642 -969,1570 -2179,2988 -3600,4234 -268,235 -541,459 -819,674 645,868 1204,1783 1678,2734zm79079 18345c-1173,861 -2365,1691 -3577,2490 155,388 304,778 448,1169 105,-115 209,-230 311,-345 968,-1081 1904,-2187 2818,-3314z"/>
   <g>
    <path fill="white" fill-rule="nonzero" d="M771224 397163c1676,-2278 3715,-4887 6115,-7828 2401,-2942 5067,-5829 7998,-8664 2932,-2833 6004,-5454 9218,-7863 3215,-2409 6501,-4221 9862,-5440 3359,-1218 6665,-1709 9916,-1477 3250,234 6346,1552 9288,3952 3068,2501 4869,5444 5399,8831 531,3387 321,6836 -628,10347 -950,3512 -2357,6819 -4219,9925 -1862,3105 -3660,5570 -5392,7394 -3464,3647 -7226,6985 -11284,10015 -4059,3029 -8370,5631 -12937,7803 2195,995 3759,2501 4697,4515 938,2013 1674,4023 2207,6030 535,2004 1069,3779 1604,5325 535,1545 1547,2284 3033,2218 1601,-82 3350,-843 5243,-2285 1896,-1441 3853,-3292 5877,-5555 2024,-2261 4048,-4754 6073,-7477 2024,-2722 3940,-5402 5744,-8040 1805,-2638 3404,-5078 4797,-7322 1394,-2241 2530,-3992 3412,-5251 781,-1132 1679,-1789 2692,-1970 1014,-182 1874,29 2581,633 707,604 1141,1556 1302,2860 159,1303 -181,2756 -1020,4354 -1850,3680 -3934,7789 -6253,12333 -2319,4543 -4790,9016 -7414,13423 -2623,4407 -5370,8514 -8240,12319 -2870,3804 -5830,6871 -8882,9201 -2213,1653 -4623,2870 -7232,3651 -2608,779 -5169,1009 -7683,684 -2514,-324 -4870,-1243 -7069,-2756 -2201,-1515 -3991,-3682 -5373,-6504 -1369,-2709 -2177,-5544 -2426,-8505 -248,-2961 -554,-5916 -915,-8863 -307,-2494 -1443,-4254 -3410,-5277 -1967,-1025 -4402,-1646 -7306,-1866 -1034,13 -1792,-296 -2271,-928 -480,-632 -685,-1355 -611,-2170 72,-814 407,-1603 1004,-2367 595,-762 1384,-1377 2362,-1843 1645,-662 3886,-2087 6725,-4278 2836,-2189 5852,-4804 9047,-7843 3194,-3038 6411,-6368 9648,-9986 3238,-3620 6015,-7240 8332,-10862 1450,-2250 1989,-3955 1617,-5118 -374,-1161 -1809,-1130 -4305,97 -3573,1820 -7287,4376 -11140,7668 -3854,3293 -7623,7036 -11308,11227 -3685,4193 -7159,8704 -10420,13534 -3263,4831 -6061,9690 -8394,14580 -2334,4890 -4129,9713 -5387,14471 -1257,4756 -1705,9069 -1346,12937 347,3755 -613,6721 -2877,8897 -2264,2178 -5527,2779 -9789,1807 -3908,-901 -6457,-3149 -7646,-6742 -1189,-3594 -1627,-7626 -1313,-12094 314,-4470 1033,-8930 2155,-13382 1122,-4453 2039,-7989 2753,-10608 4955,-17755 11466,-35009 19536,-51765 1466,-3057 3336,-6796 5613,-11217 2276,-4423 4799,-8703 7572,-12841 2771,-4137 5754,-7725 8947,-10764 3194,-3039 6442,-4702 9743,-4993 3995,-261 7149,1050 9458,3931 2311,2880 3234,6190 2773,9929 -388,2464 -1126,4885 -2215,7263 -1089,2377 -2358,4691 -3807,6939 -1451,2251 -2968,4422 -4553,6514 -1583,2094 -3121,4095 -4613,6004 -1889,2418 -3786,4780 -5688,7085 -1904,2305 -3864,4616 -5880,6935l-3097 7113z"/>
    <path fill="white" fill-rule="nonzero" d="M721520 397223c-5864,31 -11322,1276 -16370,3736 -5049,2462 -9635,5642 -13759,9543 -4123,3901 -7767,8203 -10928,12907 -3163,4705 -5783,9369 -7862,13998 -3615,8038 -5195,13209 -4741,15511 456,2303 2060,2480 4812,532 2753,-1949 6183,-5650 10288,-11102 4107,-5453 8066,-11864 11879,-19236 938,-1727 1955,-3520 3050,-5380 1094,-1862 2320,-3594 3677,-5199 1357,-1605 2938,-3007 4748,-4207 1808,-1200 3833,-2054 6071,-2559 2693,-561 5031,-502 7012,175 1983,678 3556,1779 4722,3305 1164,1525 1801,3432 1910,5719 108,2288 -422,4770 -1588,7444 -528,1332 -1257,2888 -2189,4671 -932,1783 -1874,3711 -2829,5784 -953,2075 -1846,4169 -2680,6285 -834,2115 -1479,4122 -1936,6020 -601,2605 -231,3739 1107,3401 1341,-336 3025,-1608 5056,-3813 3862,-4157 7326,-8523 10387,-13099 3064,-4576 6023,-8823 8879,-12741 597,-763 1257,-1247 1980,-1451 722,-203 1416,-174 2082,88 665,265 1213,745 1643,1439 431,696 596,1567 495,2615 -422,4079 -1751,8931 -3996,14558 -2243,5626 -5049,11120 -8419,16481 -3369,5362 -7097,10136 -11187,14319 -4089,4186 -8139,6811 -12151,7879 -2678,674 -5253,789 -7723,345 -2472,-445 -4656,-1357 -6550,-2735 -1896,-1378 -3497,-3166 -4803,-5366 -1305,-2199 -2125,-4657 -2459,-7378 -264,-2154 -330,-4332 -199,-6536 134,-2201 407,-4421 824,-6659 -1524,3523 -3127,7346 -4807,11465 -1680,4118 -3686,7932 -6018,11440 -2330,3509 -5063,6318 -8198,8429 -3136,2111 -6921,2921 -11353,2429 -5014,-535 -8742,-2321 -11187,-5357 -2443,-3038 -4061,-6607 -4854,-10709 -791,-4105 -916,-8404 -375,-12901 541,-4496 1346,-8479 2417,-11948 2697,-8960 6608,-17410 11732,-25347 5124,-7935 11227,-14927 18309,-20974 3222,-2813 6900,-5422 11036,-7828 4134,-2406 8426,-4229 12878,-5465 4450,-1236 8939,-1703 13464,-1394 4526,307 8848,1761 12963,4363 1627,1066 2683,2403 3168,4013 485,1608 507,3187 65,4737 -442,1551 -1314,2895 -2612,4033 -1299,1138 -2926,1711 -4881,1720z"/>
    <path fill="white" fill-rule="nonzero" d="M500118 496039c-2018,-3318 -3218,-6997 -3598,-11035 -380,-4038 -279,-8136 303,-12292 583,-4157 1489,-8266 2715,-12330 1227,-4064 2446,-7723 3658,-10979 3633,-9766 8060,-19170 13279,-28210 5218,-9042 11129,-17592 17736,-25653 2201,-2687 4866,-5805 7998,-9354 3132,-3547 6517,-6669 10157,-9358 3640,-2691 7461,-4599 11466,-5724 4004,-1124 8023,-727 12056,1195 3312,1665 5651,3852 7020,6560 1368,2710 2134,5664 2297,8866 163,3202 -131,6433 -883,9688 -750,3257 -1589,6265 -2516,9026 -2366,6965 -5125,13546 -8277,19744 -3152,6198 -5881,12546 -8191,19043 2488,-4103 4731,-7859 6730,-11270 1997,-3409 3881,-6574 5651,-9496 1770,-2922 3448,-5659 5033,-8213 1585,-2553 3202,-5082 4851,-7586 3625,-6083 7296,-11799 11013,-17146 3716,-5346 7565,-10076 11548,-14190 3982,-4114 8143,-7473 12485,-10077 4341,-2604 8891,-4199 13652,-4783 4195,-515 7741,488 10640,3008 2898,2521 4577,5653 5036,9394 320,2607 244,5263 -229,7967 -473,2705 -1181,5381 -2121,8029 -942,2647 -2002,5250 -3183,7812 -1183,2562 -2264,4995 -3247,7303 -469,863 -1580,3071 -3329,6622 -1751,3553 -3771,7713 -6063,12482 -2290,4769 -4642,9747 -7054,14934 -2414,5187 -4452,9895 -6119,14127 -1496,3752 -2295,6381 -2398,7890 -102,1507 247,2242 1048,2201 800,-41 1903,-665 3308,-1873 1405,-1208 2927,-2633 4566,-4271 1641,-1641 3188,-3327 4644,-5059 1456,-1732 2638,-3114 3548,-4146 2612,-3083 4986,-6251 7118,-9504 2132,-3254 4440,-6472 6927,-9654 1206,-1414 2348,-2187 3426,-2319 1077,-132 1955,220 2632,1057 679,837 1034,2089 1065,3754 32,1664 -450,3593 -1446,5786 -1367,2930 -2812,6156 -4334,9681 -1525,3524 -3186,7094 -4987,10710 -1798,3615 -3786,7109 -5961,10483 -2176,3375 -4569,6373 -7181,8995 -2612,2622 -5457,4755 -8535,6399 -3078,1643 -6451,2518 -10121,2622 -5170,61 -9534,-1274 -13090,-4001 -3558,-2728 -5859,-6703 -6902,-11927 -1044,-5221 -712,-11648 997,-19281 1710,-7632 5246,-16322 10608,-26072 1494,-2829 3180,-5969 5058,-9422 1876,-3452 3625,-6544 5246,-9276 1793,-3211 2991,-5631 3597,-7259 606,-1627 689,-2587 251,-2879 -440,-291 -1340,107 -2702,1195 -1363,1089 -3002,2728 -4919,4920 -3450,3760 -6772,7879 -9961,12356 -3191,4477 -6253,9053 -9188,13728 -2937,4675 -5786,9342 -8552,13995 -2765,4655 -5449,9042 -8051,13157 -2502,3991 -5022,8298 -7561,12925 -2539,4627 -5568,8537 -9089,11731 -2171,1993 -4540,3089 -7104,3289 -2565,199 -5092,-469 -7582,-2003 -2249,-1451 -3958,-3196 -5131,-5239 -1171,-2043 -1935,-4278 -2291,-6709 -355,-2430 -400,-4899 -132,-7406 267,-2507 659,-4943 1174,-7307 1244,-5791 3196,-11928 5852,-18410 2655,-6483 5321,-12419 7996,-17812 1567,-3184 2993,-6322 4281,-9415 1289,-3092 2020,-5339 2194,-6742 173,-1402 -390,-1533 -1690,-396 -1298,1137 -3767,4231 -7404,9279 -6578,9210 -12674,19076 -18285,29604 -5612,10528 -10263,20909 -13955,31143 -955,2533 -1893,5439 -2813,8716 -921,3278 -1095,6320 -520,9126 364,2026 67,3818 -894,5375 -959,1555 -2265,2636 -3916,3243 -1652,604 -3366,700 -5143,286 -1777,-415 -3181,-1537 -4212,-3368z"/>
    <path fill="white" fill-rule="nonzero" d="M860479 432461c2971,1706 6182,2320 9633,1838 3451,-481 6962,-1631 10537,-3451 3573,-1820 7116,-4125 10629,-6914 3512,-2791 6809,-5699 9889,-8724 3081,-3024 5825,-5979 8232,-8863 2409,-2886 4293,-5333 5658,-7341 967,-1499 2006,-2404 3118,-2713 1114,-308 2076,-197 2889,336 814,533 1387,1441 1716,2723 330,1283 245,2703 -252,4261 -4691,13348 -11522,24715 -20496,34102 -2868,2883 -6016,5601 -9443,8150 -3426,2550 -7046,4692 -10861,6426 -3814,1734 -7752,2937 -11812,3608 -4060,670 -8221,520 -12483,-453 -5083,-1102 -9259,-3005 -12525,-5712 -3267,-2705 -5757,-5880 -7469,-9525 -1714,-3643 -2753,-7658 -3119,-12045 -367,-4384 -223,-8832 433,-13343 653,-4510 1722,-8928 3206,-13252 1482,-4325 3155,-8271 5019,-11836 1877,-3453 4013,-6908 6408,-10367 2394,-3458 5079,-6664 8054,-9618 2974,-2955 6195,-5536 9663,-7746 3468,-2210 7217,-3791 11241,-4746 4692,-1152 9399,-1010 14119,423 4722,1435 8594,4153 11617,8154 2882,3788 4502,7846 4860,12176 359,4328 -152,8591 -1536,12788 -1384,4199 -3457,8164 -6220,11898 -2763,3733 -5777,6836 -9041,9309 -5364,4111 -10883,6715 -16559,7814 -5676,1101 -11509,1154 -17500,164 -587,2719 -769,5215 -549,7490 223,2274 1204,3937 2944,4989zm12431 -29487c4213,-2244 7670,-5488 10370,-9732 682,-1005 1480,-2483 2390,-4437 911,-1952 1432,-3800 1563,-5542 330,-1996 -39,-3130 -1108,-3402 -1068,-272 -2256,-97 -3561,523 -1857,803 -3578,2022 -5160,3654 -1583,1634 -2978,3157 -4186,4570 -2102,2560 -4014,5269 -5733,8127 -1721,2859 -3264,5752 -4631,8680 3670,-104 7021,-919 10056,-2441zm87031 -36232c-4731,6449 -9091,13112 -13079,19989 -3990,6875 -7266,13923 -9832,21141 -1382,3738 -1976,6170 -1780,7297 196,1125 787,1484 1773,1076 985,-408 2166,-1331 3543,-2765 1378,-1436 2677,-2802 3898,-4104 3961,-4283 7932,-8971 11910,-14062 3977,-5091 7885,-10288 11720,-15593 3838,-5303 7581,-10654 11234,-16051 3653,-5396 7185,-10606 10594,-15627 1849,-2759 4215,-4344 7098,-4755 2884,-411 5500,44 7849,1367 2349,1323 4115,3291 5300,5908 1184,2616 1043,5452 -423,8510 -2177,4754 -4282,9644 -6311,14669 -2030,5025 -4034,10249 -6016,15669 -1981,5422 -4043,11111 -6189,17071 -2144,5959 -4528,12322 -7149,19088 4401,-4453 8224,-8461 11469,-12025 3244,-3561 6117,-6876 8616,-9946 2501,-3068 4707,-5957 6617,-8666 1912,-2709 3671,-5485 5277,-8329 841,-1599 1803,-2666 2887,-3203 1085,-535 2052,-626 2902,-269 849,355 1403,1122 1663,2298 259,1177 46,2728 -637,4653 -4003,10503 -8877,20019 -14619,28548 -5031,7753 -10599,14649 -16705,20693 -6104,6043 -13057,11039 -20856,14989 -3612,6197 -7937,11733 -12978,16610 -2059,1978 -4563,3839 -7513,5583 -2950,1742 -6038,3071 -9263,3986 -3225,912 -6437,1221 -9638,923 -3201,-297 -6146,-1547 -8832,-3748 -2177,-1804 -3696,-3861 -4555,-6172 -859,-2312 -1181,-4689 -962,-7132 217,-2443 871,-4853 1961,-7231 1087,-2378 2491,-4535 4210,-6472 3564,-3775 7678,-6581 12344,-8419 4664,-1840 9539,-2668 14623,-2487 1125,-2094 2302,-4454 3533,-7079 1232,-2625 2417,-5388 3556,-8291 1140,-2900 2244,-5855 3314,-8863 1069,-3008 1953,-5879 2653,-8611 -2970,4853 -6021,9771 -9148,14759 -3127,4986 -6707,9339 -10739,13055 -2370,2248 -5161,3884 -8372,4911 -3211,1029 -6443,936 -9699,-275 -2634,-828 -4834,-2110 -6601,-3851 -1767,-1738 -3161,-3724 -4184,-5958 -1022,-2233 -1719,-4622 -2088,-7165 -370,-2544 -425,-5098 -163,-7661 379,-5340 1539,-10891 3479,-16653 1938,-5762 4323,-11405 7154,-16930 2833,-5526 5960,-10744 9385,-15652 3424,-4907 6805,-9235 10143,-12982 2315,-2701 4917,-3998 7807,-3893 2889,106 5419,1032 7591,2778 2170,1748 3604,4047 4298,6895 695,2850 5,5667 -2070,8454zm137993 -47150c-5323,4451 -10384,9388 -15184,14810 -4799,5423 -9370,11074 -13710,16959 -4340,5883 -8491,11916 -12449,18099 -3960,6182 -7716,12137 -11270,17868 -284,494 -715,1208 -1290,2142 -576,933 -1269,1853 -2078,2758 -810,905 -1672,1615 -2587,2131 -916,514 -1796,595 -2646,238 -1445,-514 -2153,-1606 -2128,-3278 24,-1671 231,-3278 615,-4821 2630,-10449 5772,-20473 9427,-30069 3654,-9598 8232,-18703 13734,-27318 1634,-2618 3727,-5492 6276,-8624 2550,-3133 5417,-6017 8603,-8652 3186,-2634 6563,-4660 10128,-6076 3566,-1417 7127,-1709 10680,-880 1658,371 3048,1151 4170,2335 1124,1186 1891,2501 2298,3948 407,1446 419,2941 33,4484 -386,1542 -1261,2859 -2622,3946zm-52254 107217c-896,2066 -2341,3884 -4335,5452 -1994,1569 -4168,2611 -6521,3130 -2351,520 -4700,377 -7043,-430 -2342,-805 -4375,-2597 -6097,-5378 -1003,-1603 -1515,-3439 -1540,-5508 -22,-2067 276,-4089 896,-6063 620,-1976 1488,-3808 2604,-5500 1115,-1688 2363,-3021 3738,-3995 2866,-1964 5706,-2744 8516,-2340 2812,401 5195,1547 7153,3436 1957,1888 3243,4377 3852,7466 609,3090 202,6334 -1223,9730z"/>
   </g>
   <path fill="white" fill-rule="nonzero" d="M353677 439388c1209,4532 -1442,8042 -7989,10541l-2265 605c-21382,5702 -42053,-17633 -21380,-23142l381 -101c4478,-1196 10727,-1041 16488,491 -2857,1398 -4693,4462 -4364,7815 420,4313 4257,7467 8571,7046 4313,-422 7468,-4259 7047,-8572 -17,-171 -40,-340 -67,-507 1718,1650 2981,3589 3578,5824z"/>
   <path fill="white" fill-rule="nonzero" d="M394547 468508c-1044,4571 -5028,6439 -11983,5594l-2285 -521c-21574,-4936 -28966,-35220 -8112,-30446l386 89c3174,726 6812,2449 10213,4812 -125,6 -252,15 -379,28 -4314,421 -7468,4258 -7047,8572 422,4314 4260,7467 8573,7046 4054,-396 7085,-3811 7084,-7803 2914,3959 4522,8384 3550,12629z"/>
   <path fill="white" fill-rule="nonzero" d="M267882 438433c-935,4594 1923,7939 8608,10040l2296 467c12718,2586 24588,-4783 28005,-12178 -1226,2108 -3412,3618 -6026,3873 -4313,421 -8150,-2734 -8571,-7047 -422,-4313 2732,-8151 7046,-8571 433,-42 861,-49 1281,-21 -559,-164 -1152,-311 -1782,-439l-389 -79c-10018,-2038 -28242,2994 -30468,13955z"/>
   <path fill="#0091FF" fill-rule="nonzero" d="M335347 419363l-2656 -540c-13848,-2817 -29205,-2366 -46086,1277l-80 390 389 80c3965,-780 8162,-701 12594,200 5858,1190 9885,4100 12038,8749 5855,-6423 14300,-8515 25367,-6265 10808,2198 17482,7497 20050,15903 211,1627 81,3590 -380,5855l356 73c3043,-5179 8395,-6987 16131,-5414 10872,2210 19068,9133 24581,20801 1047,2640 1232,5710 527,9173 -966,4756 -4442,7588 -10435,8558 -1134,276 -3477,203 -7059,-254 -10062,-2046 -18072,-8561 -24066,-19518 -1447,-3326 -1760,-6929 -964,-10844 436,-821 673,-1313 700,-1443l78 -388 -389 -80c-1067,5243 -6963,8391 -17723,9438 -2499,32 -5354,-179 -8577,-564 -9547,-1942 -16223,-6568 -20046,-13951 -3273,4660 -7907,8064 -13937,10208 -6478,2358 -12633,2959 -18520,1762l-1521 -309c-6634,-1349 -10528,-4904 -11649,-10660 -77,-2272 -46,-3579 27,-3938 1249,-6147 6036,-10969 14363,-14467l78 -386 -742 -152c-6757,2400 -14302,6528 -22668,12375 -3820,3704 -5910,5537 -6235,5471 -4393,-17841 -8689,-30776 -22881,-43425 -2839,-2531 130,4018 381,4668 3629,9444 4732,11889 5289,22050 31,590 64,1181 97,1771 -1012,4982 -844,17250 433,36817 1965,3264 3559,5036 4854,5299l356 72c906,184 2006,-96 3343,-870 3898,12149 14310,23096 31239,32806 14583,8490 30484,14487 47666,17980l4561 929c27443,5579 50420,3276 68936,-6910 1673,-1109 4322,-3197 7984,-6294 1947,3024 3592,4706 4921,4976 4666,-905 7287,-2864 7906,-5908 5097,-7955 10143,-21446 13577,-30526 1795,-4752 2795,-6516 6228,-10421 697,-792 10900,-11241 9924,-11904 -1581,-1076 -16762,6883 -18340,7918 -5664,3718 -11939,11479 -16114,17007l-336 446 -386 -80c-5819,-17963 -19297,-33207 -40436,-45761 -6884,-3758 -16002,-7466 -27363,-11089 597,-2224 2272,-7237 1839,-9188 -1347,-6070 -19361,-12465 -6784,-15489 6049,-1453 12079,-2514 14738,-8950 506,-1223 1013,-2616 1845,-3662 2509,-2831 4262,-4741 5572,-8530 895,-2590 1025,-4734 -1304,-6489 -2738,-1695 -10238,-3219 -11679,831 -1242,5118 1877,17133 -209,20412 -4341,6826 -24060,3006 -11814,14570 2887,2725 6690,5283 5022,9713 -755,2004 -1712,4141 -2611,6091zm-19980 57949l-468 2301c-1194,5899 2566,9448 6872,10320l2303 467c5903,1196 9445,-2564 10309,-6826l466 -2302c1206,-5948 -2557,-9493 -6812,-10358l-2303 -468c-5901,-1200 -9495,2558 -10367,6866zm12658 -12364c10254,2651 14757,9493 12371,18628 -2677,10252 -9474,14690 -18663,12314 -10252,-2651 -14698,-9425 -12322,-18615 2648,-10257 9473,-14692 18614,-12327z"/>
   <path fill="#00CCFF" fill-rule="nonzero" d="M961702 108066l4525 2612c23235,13415 22699,47460 -1531,102179l-20474 39712c-8722,15107 -16279,22705 -22748,22754 -6741,-723 -12281,-2284 -16421,-4675l-3099 5368 -9316 7811c2084,25434 2660,38958 1731,40568 -22245,15684 -36584,24581 -43019,26694l-920 -531 -701 -2858c6276,-6090 18981,-15523 37963,-28387l-4732 -37495 -9371 -5363 -532 919c454,11611 169,18300 -759,19908l-531 921c-8384,14522 -16046,19467 -17808,18449l-921 -531 -745 -2782 1062 -1840 12513 -15475 532 -920c1108,-1917 1082,-8783 -162,-20440l531 -920 -1364 -834 -11759 1595 -26079 16127c457,25417 -521,40394 -3132,44917l-2859 702c-2215,-6083 -2646,-22692 -1218,-49781 8332,-3982 18491,-11307 30630,-21884l532 -919 -3793 -14153 488 -844c2437,-4217 1253,-7661 -3578,-10450 -10660,-6154 -10752,-19806 -279,-40957 15229,-26379 39364,-54365 72400,-83961 17008,-11039 31908,-12763 44944,-5236zm-91555 69323l2151 2470c4986,2878 14323,2645 27967,-622 7094,108 13731,1895 19713,5348l4447 2567c11426,6597 16299,14626 14851,24218l844 488 11344 5322c25900,-52119 29301,-83691 10283,-94671l-6288 -3631c-17330,-10006 -37747,-321 -61184,29294 -12282,12950 -20320,22622 -24128,29217zm461 7526l-390 -1452 -4058 -1117 -14281 20486c-7262,12577 -6674,21300 1684,26126l21938 13892c30596,17665 47273,24022 50018,19268 1150,663 4021,-2894 8493,-10639l15273 -28399 -14028 -6872c455,-10882 -3092,-18554 -10760,-22981l-2684 -1550c-12115,-6995 -25898,-7386 -41313,-1051l-9892 -5711zm47892 8428c12967,10656 16545,21106 10657,31306l-4163 7209c-7260,12575 -20267,15801 -39142,9709 -11272,-6508 -16450,-15427 -15641,-26923l2301 -5932 1549 -2683c6642,-11503 16749,-17323 30313,-17262l14126 4576zm-30314 17263c-1938,8492 199,14531 6334,18073 8979,3752 15632,1969 19882,-5393 3277,-5674 832,-11890 -7298,-18527 -5982,-3454 -12328,-1493 -18918,5847zm50474 18302l920 531 702 2859 -2782 746 -920 -531 -746 -2783 2826 -822zm-70232 -38094l746 2782 -2827 821 -778 -2902 2859 -701zm32262 20979l5369 3099 1135 4233 -2081 3603c-2338,1923 -5072,1878 -8369,-25 -2020,-2700 -2846,-4813 -2444,-6217l2081 -3604 4309 -1089zm-19656 48567l-21624 -12486 -531 920c-3100,5369 -1352,9956 5243,13763l2684 1550c16180,9342 26035,11044 29488,5063l488 -844 -920 -531 -14828 -7435z"/>
   <path fill="black" d="M909020 282820l-6251 5242c656,8176 1261,16389 1610,24568 200,4673 821,12512 -1562,16642l-1073 1859 -1755 1237c-9135,6440 -18416,12858 -27915,18751 -5201,3228 -11861,7327 -17682,9238l-4140 1360 -8303 -4790 -3026 -12332 4013 -3894c4621,-4485 10018,-8621 15175,-12471 6271,-4680 12693,-9192 19155,-13618l-716 -5676c-6398,9461 -17374,21991 -27468,16164l-4420 -2552 -2836 -10588 3465 -6000 12131 -15005c186,-1774 90,-4430 -102,-7105l-308 42 -19588 12113c221,13236 230,36157 -4542,44422l-2081 3604 -15399 3778 -2993 -8221c-2086,-5734 -2408,-14032 -2559,-20108 -276,-11122 182,-22417 768,-33523l305 -5788 5228 -2499c8324,-3979 17021,-10722 24460,-17024l-3352 -12513 1279 -2213c-2707,-1750 -5066,-3944 -6946,-6593 -9734,-13718 -2619,-32977 4024,-46392l139 -279 156 -271c18673,-32344 46669,-61560 74338,-86348l564 -505 635 -412c17115,-11109 36562,-16222 55131,-5502l4525 2612c39375,22730 16289,83460 2511,114577l-117 263 -20712 40175 -116 201c-6246,10818 -16950,27524 -31123,27631l-558 4 -555 -59c-3795,-407 -7678,-1091 -11414,-2202z"/>
   <path fill="white" fill-rule="nonzero" d="M881034 260360l-21624 -12486 -531 920c-3100,5369 -1352,9956 5243,13763l2684 1550c16180,9342 26035,11044 29488,5063l488 -844 -920 -531 -14828 -7435zm-12606 -69546l746 2782 -2827 821 -778 -2902 2859 -701zm70232 38094l920 531 702 2859 -2782 746 -920 -531 -746 -2783 2826 -822zm-50474 -18302c-1938,8492 199,14531 6334,18073 8979,3752 15632,1969 19882,-5393 3277,-5674 832,-11890 -7298,-18527 -5982,-3454 -12328,-1493 -18918,5847zm30314 -17263c12967,10656 16545,21106 10657,31306l-4163 7209c-7260,12575 -20267,15801 -39142,9709 -11272,-6508 -16450,-15427 -15641,-26923l2301 -5932 1549 -2683c6642,-11503 16749,-17323 30313,-17262l14126 4576zm-47892 -8428l-390 -1452 -4058 -1117 -14281 20486c-7262,12577 -6674,21300 1684,26126l21938 13892c30596,17665 47273,24022 50018,19268 1150,663 4021,-2894 8493,-10639l15273 -28399 -14028 -6872c455,-10882 -3092,-18554 -10760,-22981l-2684 -1550c-12115,-6995 -25898,-7386 -41313,-1051l-9892 -5711zm-461 -7526l2151 2470c4986,2878 14323,2645 27967,-622 7094,108 13731,1895 19713,5348l4447 2567c11426,6597 16299,14626 14851,24218l844 488 11344 5322c25900,-52119 29301,-83691 10283,-94671l-6288 -3631c-17330,-10006 -37747,-321 -61184,29294 -12282,12950 -20320,22622 -24128,29217zm91555 -69323l4525 2612c23235,13415 22699,47460 -1531,102179l-20474 39712c-8722,15107 -16279,22705 -22748,22754 -6741,-723 -12281,-2284 -16421,-4675l-3099 5368 -9316 7811c2084,25434 2660,38958 1731,40568 -22245,15684 -36584,24581 -43019,26694l-920 -531 -701 -2858c6276,-6090 18981,-15523 37963,-28387l-4732 -37495 -9371 -5363 -532 919c454,11611 169,18300 -759,19908l-531 921c-8384,14522 -16046,19467 -17808,18449l-921 -531 -745 -2782 1062 -1840 12513 -15475 532 -920c1108,-1917 1082,-8783 -162,-20440l531 -920 -1364 -834 -11759 1595 -26079 16127c457,25417 -521,40394 -3132,44917l-2859 702c-2215,-6083 -2646,-22692 -1218,-49781 8332,-3982 18491,-11307 30630,-21884l532 -919 -3793 -14153 488 -844c2437,-4217 1253,-7661 -3578,-10450 -10660,-6154 -10752,-19806 -279,-40957 15229,-26379 39364,-54365 72400,-83961 17008,-11039 31908,-12763 44944,-5236z"/>
   <path fill="red" fill-rule="nonzero" d="M900690 211793l5369 3099 1135 4233 -2081 3603c-2338,1923 -5072,1878 -8369,-25 -2020,-2700 -2846,-4813 -2444,-6217l2081 -3604 4309 -1089z"/>
   <path fill="white" fill-rule="nonzero" d="M1058800 442215l-816 -471 117 -204 816 473 -117 202zm1103 8908l-1506 -344c-79,-23 -194,-116 -149,-310l60 -267c38,-162 161,-239 322,-203l1454 332 79 -342 -1374 -314c-464,-106 -696,75 -793,498l-42 186c-26,114 -26,224 11,321l-888 -203 -79 344 2827 646 78 -344zm13175 23559l-834 1445 -203 -118 834 -1445 203 118zm6277 -29599l2714 1567 -6245 10816 -2713 -1566 659 -1143c-820,198 -1561,254 -2221,168 -661,-86 -1304,-308 -1925,-667 -1398,-806 -2294,-2046 -2687,-3719 -394,-1672 -127,-3313 804,-4924 964,-1670 2248,-2754 3850,-3252 1603,-498 3109,-340 4519,475 649,373 1187,848 1616,1423 426,574 741,1246 941,2014l688 -1192zm-4138 580l0 0c-839,-485 -1708,-591 -2605,-317 -896,272 -1614,874 -2150,1800 -538,935 -702,1867 -484,2797 216,928 737,1632 1563,2108 853,492 1731,603 2634,334 904,-268 1635,-883 2189,-1844 544,-941 702,-1866 477,-2773 -225,-908 -766,-1610 -1624,-2105zm9698 -2938l2714 1566 -8656 14994 -2714 -1567 8656 -14993zm3163 1826l2713 1566 -2411 4176 1276 737 -1349 2336 -1276 -737 -4896 8482 -2713 -1568 8656 -14992zm-886 8742l750 434 -4660 8072 -751 -433 4661 -8073zm5852 6376l-3364 5824 -738 -426 578 -1001c-534,200 -1052,284 -1554,251 -503,-33 -986,-183 -1450,-452 -824,-476 -1355,-1180 -1593,-2114 -239,-936 -110,-1831 385,-2688 483,-838 1192,-1386 2125,-1641 933,-256 1812,-145 2640,333 479,276 852,627 1122,1054 270,428 434,928 492,1504l617 -1070 740 426zm-3326 -1157l0 0c-417,-240 -862,-360 -1333,-358 -471,0 -918,127 -1340,378 -423,250 -753,580 -992,994 -237,411 -357,863 -363,1359 -7,495 108,950 342,1363 235,414 555,736 961,972 411,237 859,358 1345,363 486,5 931,-112 1332,-350 401,-239 729,-580 984,-1022 388,-672 493,-1365 310,-2074 -182,-708 -597,-1249 -1246,-1625zm466 7272l4660 -8073 749 432 -1876 3250c536,-205 1055,-290 1554,-256 498,33 978,184 1442,452 824,476 1354,1180 1591,2112 238,936 112,1829 -380,2682 -488,844 -1196,1391 -2129,1647 -933,257 -1812,147 -2639,-331 -474,-273 -845,-623 -1111,-1049 -269,-425 -432,-927 -494,-1506l-619 1072 -748 -432zm3328 1156l0 0c416,241 859,361 1331,360 472,-2 917,-129 1340,-380 423,-251 754,-584 993,-998 238,-413 360,-868 367,-1363 5,-497 -107,-952 -342,-1365 -233,-413 -551,-736 -953,-968 -410,-236 -858,-356 -1347,-360 -490,-5 -935,113 -1337,353 -401,238 -730,580 -985,1021 -390,676 -493,1367 -312,2076 181,709 596,1249 1245,1624zm-19318 -9189l532 308 -1699 2942 -532 -307 130 -225c-161,39 -307,51 -437,32 -130,-16 -256,-60 -378,-131 -274,-158 -450,-401 -527,-729 -77,-328 -26,-650 158,-966 189,-329 441,-540 756,-638 314,-97 609,-67 887,93 127,73 233,167 316,279 84,112 146,245 186,396l608 -1054zm-1286 934l0 0c-164,-96 -336,-116 -510,-63 -177,54 -318,171 -423,353 -106,184 -137,367 -95,550 44,181 144,320 307,414 167,96 339,117 518,66 176,-54 319,-175 428,-363 106,-185 139,-367 95,-544 -45,-178 -151,-317 -320,-413zm2521 -294c93,54 154,134 182,240 27,107 13,208 -42,303 -55,95 -135,157 -239,187 -106,29 -204,16 -296,-36 -94,-55 -156,-137 -183,-243 -27,-107 -14,-209 43,-307 54,-94 134,-155 239,-183 103,-28 203,-15 296,39zm-771 720l0 0 533 308 -1226 2125 -533 -308 1226 -2125zm5360 3668l-585 -12c-34,-136 -80,-245 -142,-324 -61,-82 -147,-153 -257,-216 -198,-116 -395,-150 -586,-102 -192,47 -342,165 -449,350 -104,181 -130,364 -77,545 51,183 175,330 367,441 238,139 471,164 699,78l253 531c-398,163 -805,126 -1220,-114 -374,-216 -602,-495 -686,-837 -84,-343 -40,-663 131,-960 119,-206 279,-366 482,-480 204,-113 425,-166 666,-158 242,6 476,75 703,207 212,122 377,274 496,456 118,180 187,378 205,595zm444 -317l457 264 -154 268c109,-77 221,-119 335,-127 114,-6 219,17 317,74 69,40 130,100 186,180l-432 362c-44,-67 -87,-111 -127,-135 -83,-47 -181,-37 -296,32 -115,69 -257,252 -428,548l-59 105 -496 859 -530 -306 1227 -2124zm2599 3121l-1712 -988c-62,167 -66,323 -9,475 55,151 167,274 334,371 198,115 410,144 632,87l328 471c-204,94 -406,133 -606,120 -200,-15 -408,-84 -620,-207 -334,-193 -545,-454 -632,-785 -89,-331 -43,-654 140,-971 187,-324 447,-534 780,-626 332,-93 656,-50 971,132 334,193 543,458 629,792 87,335 29,678 -174,1030l-61 99zm-291 -726l0 0c33,-139 19,-276 -41,-408 -61,-135 -159,-242 -297,-321 -148,-86 -303,-120 -463,-101 -100,13 -219,67 -354,163l1155 667zm2868 593l533 309 -1226 2123 -533 -307 131 -225c-162,39 -307,50 -437,32 -130,-16 -256,-60 -379,-131 -273,-158 -449,-401 -526,-730 -78,-327 -26,-649 157,-965 190,-329 442,-541 756,-638 315,-98 610,-68 887,92 128,74 233,167 316,278 85,114 147,247 186,397l135 -235zm-812 114l0 0c-166,-95 -336,-115 -512,-61 -175,54 -316,171 -421,352 -106,185 -138,367 -95,550 43,182 144,320 306,414 168,96 340,118 517,65 177,-52 321,-173 429,-362 106,-184 140,-366 94,-544 -43,-177 -151,-316 -318,-414zm2348 -270l532 308 -451 782 316 182 -266 460 -316 -184 -961 1666 -532 -308 961 -1665 -273 -157 266 -458 272 157 452 -783zm-10967 -6331l532 308 -451 781 317 183 -266 459 -316 -182 -961 1665 -533 -307 962 -1667 -273 -157 264 -459 274 158 451 -782zm12416 7046c94,54 155,133 182,240 28,107 15,208 -40,305 -55,94 -135,156 -240,184 -105,30 -204,18 -297,-35 -95,-55 -154,-136 -181,-243 -30,-107 -15,-209 42,-306 54,-95 133,-155 239,-184 104,-27 202,-15 295,39zm-770 720l0 0 533 307 -1227 2125 -532 -307 1226 -2125zm737 425l543 315 -187 1562 1258 -944 541 312 -2130 1603 -345 -200 320 -2648zm3126 640c94,55 154,134 182,240 27,108 15,209 -40,305 -55,94 -135,157 -240,185 -107,29 -204,18 -297,-36 -94,-55 -154,-136 -182,-242 -29,-107 -14,-210 42,-307 54,-95 134,-155 240,-184 104,-26 202,-14 295,39zm-769 721l0 0 532 307 -1227 2125 -533 -307 1228 -2125zm1515 -167l533 308 -452 781 316 183 -264 459 -317 -183 -961 1665 -532 -307 961 -1665 -274 -158 266 -459 273 158 451 -782zm502 1332l544 314 -217 1652 1378 -982 545 315 -3004 2133 -550 -318 976 -682 328 -2432zm-30535 -13209l-1668 1 0 -234 1668 -2 0 235zm2889 10536l-1444 834 -117 -202 1444 -834 117 202zm3371 4347l-513 514 -166 -165 513 -515 166 166zm3965 3075l-857 1330 -197 -126 857 -1331 197 127zm-428 -262l-808 1259 -198 -126 808 -1259 198 126zm-420 -275l-819 1150 -191 -136 818 -1150 192 136zm-415 -283l-408 573 -359 508 -191 -135 359 -507 408 -574 191 135zm-409 -293l-763 977 -186 -145 765 -976 184 144zm-399 -303l-709 910 -184 -143 708 -911 185 144zm-395 -311c-206,239 -369,432 -544,636l-150 175 -178 -151 150 -176 545 -636 177 152zm-382 -325l-319 375 0 0 -320 376 -178 -152 319 -375 318 -375 180 151zm-380 -328l-613 658 -172 -159 613 -658 172 159zm-367 -343l-16 17 -1 -1c-183,202 -369,404 -534,584l-172 -159c192,-208 363,-395 534,-582l0 0 16 -18 173 159zm-3487 -4262l-1370 791 -117 -203 1369 -791 118 203zm275 420l-629 406 -629 405 -127 -196 630 -406 627 -405 128 196zm273 423l-1185 765 -127 -196 1185 -766 127 197zm295 406l-1076 775 -137 -189 1076 -776 137 190zm294 409l-1007 727 -137 -190 1006 -726 138 189zm313 393l-901 722 -147 -182 902 -723 146 183zm313 394l-191 154c-230,184 -456,365 -642,515l-147 -182c241,-194 444,-357 642,-516l192 -154 146 183zm333 377l-736 656 -156 -176 736 -655 156 175zm332 378l-670 599 -157 -174 670 -599 157 174zm350 361c-163,160 -371,367 -578,573l-166 -166c177,-175 355,-352 580,-573l164 166zm-5234 -19997l-702 -189 61 -226 702 188 -61 227zm1951 15573l-1272 653 -137 71 -108 -209 138 -70 1271 -654 108 209zm-232 -445l-1332 682 -107 -209 1333 -682 106 209zm-235 -446l-1286 582 -96 -214 1285 -581 97 213zm-209 -458l-1063 479 -146 66 -97 -213 146 -66 1065 -480 95 214zm-213 -454l-475 186 -680 266 -86 -219 680 -265 476 -186 85 218zm-188 -468l-1077 420 -84 -217 1077 -420 84 217zm-192 -463l-1014 337 -74 -221 1014 -338 74 222zm-165 -475l-934 309 -74 -223 935 -309 73 223zm-170 -474l-433 120 -434 120 -61 -227 433 -120 433 -120 62 227zm-142 -482l-785 213 -61 -226 785 -214 61 227zm-883 -5435l-1581 74 -11 -234 1582 -74 10 234zm24 501c-453,21 -907,42 -1496,67l-11 -233c408,-17 952,-44 1496,-68l11 234zm31 501l-703 67 -1 0 -703 64 -21 -233 703 -64 703 -67 22 233zm47 501l-1321 122 -21 -234 1320 -121 22 233zm55 499l-1231 171 -32 -233 1230 -170 33 232zm70 498l-1144 157 -32 -232 1144 -157 32 232zm78 497l-1052 192 -42 -229 1052 -193 42 230zm94 494l-968 173 -42 -230 968 -173 42 230zm101 491l-876 199 -52 -228 876 -198 52 227zm119 489l-793 178 -52 -230 793 -176 52 228zm122 482l-703 188 -60 -226 702 -188 61 226zm1775 -15581l-1370 -791 117 -203 1370 791 -117 203zm-241 441c-557,-319 -927,-532 -1297,-747l117 -203c493,285 988,571 1297,747l-117 203zm-216 456l-1258 -643 108 -209 1257 643 -107 209zm-217 452l-1181 -602 107 -208 1180 602 -106 208zm-196 463l-144 -64 -988 -443 95 -213 989 443 144 63 -96 214zm-194 464l-1056 -470 96 -214 1055 470 -95 214zm-176 471l-999 -384 85 -219 999 385 -85 218zm-169 473l-524 -202 -395 -151 84 -218 395 152 523 201 -83 218zm-155 479l-854 -280 73 -222 855 280 -74 222zm-146 479l-80 -25c-221,-72 -445,-144 -693,-226l73 -222c210,69 451,147 692,224l80 27 -72 222zm-812 5449l-1583 -1 0 -233 1584 1 -1 233zm15 -502l-728 -37 -767 -38 12 -234 766 39 729 36 -12 234zm27 -503l-1309 -65 0 0 -103 -5 12 -234 103 5 0 1c392,19 772,39 1307,64l-10 234zm39 -500l-1321 -133 23 -233 1321 133 -23 233zm47 -501l-1234 -125 25 -233 1234 125 -25 233zm65 -498l-1142 -175 36 -232 1142 176 -36 231zm74 -498l-1059 -162 36 -232 1059 163 -36 231zm84 -494l-481 -101 1 0 -482 -99 48 -229 482 99 1 0 481 101 -50 229zm99 -493l-880 -186 49 -229 880 186 -49 229zm110 -492c-246,-64 -424,-111 -593,-155l-194 -51 60 -227 194 51 592 155 -59 227zm30977 -13472l834 -1445 204 117 -835 1445 -203 -117zm10650 18210l1667 -1 1 234 -1668 1 0 -234zm-2890 -10536l1444 -834 118 203 -1444 833 -118 -202zm-3371 -4347l514 -514 166 166 -514 514 -166 -166zm-3965 -3074l857 -1331 197 127 -856 1330 -198 -126zm429 262l807 -1260 198 126 -807 1259 -198 -125zm420 274l819 -1149 190 136 -818 1149 -191 -136zm415 283l407 -574 359 -506 191 135 -359 506 -407 574 -191 -135zm408 294l764 -977 186 144 -765 976 -185 -143zm399 303l709 -911 185 144 -709 910 -185 -143zm395 310c206,-239 370,-431 544,-635l150 -176 179 152 -150 175 -546 637 -177 -153zm383 326l318 -376 1 -1 319 -374 178 151 -319 376 -318 375 -179 -151zm379 327l613 -657 172 159 -613 657 -172 -159zm367 344l17 -18 0 0c184,-201 370,-402 534,-582l173 158c-192,208 -364,395 -535,582l0 0 -15 18 -174 -158zm3488 4262l1369 -791 118 202 -1370 791 -117 -202zm-275 -421l628 -406 629 -405 127 197 -630 405 -627 406 -127 -197zm-274 -422l1186 -766 127 196 -1185 766 -128 -196zm-294 -407l1075 -774 137 189 -1075 775 -137 -190zm-294 -409l1006 -726 137 189 -1006 727 -137 -190zm-314 -392l901 -722 148 182 -902 723 -147 -183zm-313 -394l192 -155c229,-183 455,-364 641,-515l147 182c-240,195 -443,357 -642,516l-192 155 -146 -183zm-333 -377l736 -656 157 175 -736 655 -157 -174zm-331 -379l669 -599 157 175 -669 599 -157 -175zm-350 -361c162,-160 370,-366 578,-573l166 166c-178,176 -355,353 -580,574l-164 -167zm5234 19998l701 188 -61 226 -702 -188 62 -226zm-1951 -15573l1271 -654 137 -70 108 209 -137 70 -1272 654 -107 -209zm231 445l1333 -682 107 208 -1334 682 -106 -208zm236 446l1286 -582 95 213 -1285 581 -96 -212zm208 458l1064 -480 146 -65 96 212 -146 67 -1064 479 -96 -213zm213 454l476 -187 680 -265 85 217 -680 266 -476 186 -85 -217zm188 467l1077 -421 85 218 -1078 420 -84 -217zm192 463l1015 -337 74 222 -1015 338 -74 -223zm165 476l934 -309 74 222 -934 310 -74 -223zm170 474l433 -120 434 -120 62 226 -433 120 -433 120 -63 -226zm143 482l785 -214 61 227 -785 213 -61 -226zm882 5435l1582 -75 10 235 -1581 74 -11 -234zm-24 -501c454,-22 907,-43 1496,-68l11 234c-407,17 -952,43 -1496,68l-11 -234zm-30 -502l703 -66 0 0 703 -65 21 234 -702 64 -704 67 -21 -234zm-47 -500l1321 -122 20 233 -1320 122 -21 -233zm-56 -500l1231 -170 32 232 -1230 171 -33 -233zm-69 -498l1143 -156 32 232 -1144 156 -31 -232zm-79 -496l1053 -193 42 230 -1053 193 -42 -230zm-93 -495l968 -174 41 232 -968 173 -41 -231zm-102 -491l876 -199 52 228 -876 199 -52 -228zm-118 -488l793 -178 51 229 -793 177 -51 -228zm-123 -482l703 -188 61 226 -703 188 -61 -226zm-1774 15580l1370 791 -118 204 -1370 -792 118 -203zm240 -441c557,319 927,533 1298,747l-117 204 -1298 -748 117 -203zm216 -455l1258 642 -108 209 -1256 -642 106 -209zm218 -452l1180 601 -106 208 -1181 -602 107 -207zm196 -464l143 65 989 441 -95 215 -989 -443 -144 -64 96 -214zm193 -464l1056 471 -96 214 -1055 -471 95 -214zm177 -470l998 384 -85 218 -998 -385 85 -217zm168 -473l525 201 394 151 -84 218 -394 -151 -524 -201 83 -218zm156 -479l853 280 -73 222 -854 -280 74 -222zm146 -480l80 26c220,71 444,144 693,225l-73 223c-211,-69 -452,-147 -692,-225l-80 -26 72 -223zm811 -5449l1584 1 -1 234 -1584 -1 1 -234zm-15 502l729 37 766 38 -12 234 -765 -38 -730 -38 12 -233zm-26 503l1308 66 0 -1 103 6 -12 234 -102 -5 0 -1c-393,-20 -772,-39 -1308,-65l11 -234zm-39 501l1320 132 -23 234 -1320 -133 23 -233zm-48 500l1234 125 -25 233 -1234 -125 25 -233zm-64 498l1142 176 -36 231 -1142 -176 36 -231zm-74 498l1058 163 -36 231 -1058 -162 36 -232zm-85 495l481 100 0 0 481 100 -48 229 -481 -99 -1 0 -481 -101 49 -229zm-99 492l880 186 -49 229 -880 -186 49 -229zm-110 492c247,65 424,110 594,155l194 52 -61 226 -194 -50 -591 -157 58 -226zm-2204 5591l1445 834 -117 203 -1445 -834 117 -203zm-18210 10649l1 1668 -235 0 -1 -1668 235 0zm10536 -2889l834 1444 -203 117 -834 -1444 203 -117zm4347 -3371l514 513 -166 166 -514 -513 166 -166zm3074 -3965l1331 857 -127 197 -1330 -857 126 -197zm-262 428l1260 808 -126 198 -1259 -808 125 -198zm-274 420l1149 819 -136 191 -1150 -818 137 -192zm-283 415l574 408 506 359 -135 191 -506 -359 -574 -408 135 -191zm-294 408l977 764 -144 186 -976 -765 143 -185zm-303 400l911 709 -144 184 -910 -708 143 -185zm-310 395l405 347 406 347 -152 178 -407 -348 0 0 -405 -347 153 -177zm-326 382l376 319 1 0 374 320 -151 177 -376 -319 -375 -318 151 -179zm-327 380l657 613 -159 172 -657 -613 159 -172zm-344 367l17 16 0 1c201,183 403,368 583,534l-158 172c-208,-192 -395,-364 -583,-535l0 1 -17 -16 158 -173zm-4262 3487l791 1370 -202 117 -791 -1369 202 -118zm421 -275l405 628 406 630 -197 126 -405 -629 -406 -627 197 -128zm422 -273l766 1185 -196 127 -766 -1185 196 -127zm407 -295l774 1076 -189 137 -775 -1076 190 -137zm408 -294l727 1007 -189 137 -727 -1006 189 -138zm393 -313l722 901 -182 147 -723 -902 183 -146zm394 -314l155 192c183,230 364,455 515,642l-182 147c-195,-241 -357,-444 -516,-642l-155 -192 183 -147zm377 -332l656 736 -175 156 -655 -736 174 -156zm379 -332l599 670 -175 157 -599 -670 175 -157zm361 -350c160,163 366,371 573,578l-166 166c-176,-177 -353,-355 -574,-580l167 -164zm-19998 5234l-188 702 -226 -61 188 -702 226 61zm15573 -1951l654 1272 70 137 -209 107 -70 -137 -654 -1271 209 -108zm-445 231l682 1333 -208 107 -683 -1333 209 -107zm-446 236l582 1286 -213 96 -581 -1286 212 -96zm-458 209l480 1063 65 146 -212 97 -67 -147 -479 -1064 213 -95zm-454 213l187 475 265 680 -218 86 -266 -680 -185 -476 217 -85zm-467 188l421 1076 -218 85 -420 -1077 217 -84zm-463 192l337 1014 -222 74 -338 -1014 223 -74zm-476 165l309 934 -222 74 -310 -935 223 -73zm-474 170l120 433 120 433 -226 62 -120 -432 -120 -434 226 -62zm-482 142l214 783 -226 62c-80,-291 -148,-542 -214,-784l226 -61zm-5435 882l75 1582 -235 11 -74 -1582 234 -11zm501 -23c22,453 43,907 68,1496l-234 11c-17,-408 -43,-952 -68,-1496l234 -11zm501 -31l67 703 0 1 65 702 -234 22 -64 -703 -67 -703 233 -22zm501 -47l122 1321 -233 21 -122 -1321 233 -21zm500 -55l170 1230 -232 33 -171 -1230 233 -33zm498 -70l156 1144 -232 32 -156 -1144 232 -32zm496 -78l193 1052 -230 42 -193 -1052 230 -42zm495 -94l173 968 -231 42 -173 -969 231 -41zm491 -101l198 876 -227 52 -199 -876 228 -52zm488 -119l178 793 -229 52 -177 -793 228 -52zm482 -122l188 703 -226 60 -188 -702 226 -61zm-15580 -1775l-791 1370 -204 -117 791 -1370 204 117zm441 241c-320,556 -533,927 -747,1297l-204 -117 748 -1297 203 117zm455 216l-642 1258 -209 -108 642 -1257 209 107zm452 217l-601 1181 -208 -107 602 -1180 207 106zm464 196l-65 144 -442 988 -214 -95 443 -989 64 -144 214 96zm464 194l-471 1055 -214 -95 471 -1056 214 96zm470 176l-384 998 -219 -84 386 -999 217 85zm472 170l-351 918 -218 -84 351 -918 218 84zm480 153l-280 855 -222 -73 280 -855 222 73zm480 147l-26 80c-71,221 -144,445 -226,693l-222 -73c69,-211 147,-452 225,-692l26 -80 223 72zm5449 812l-1 1582 -234 0 1 -1583 234 1zm-502 -15l-38 728 -38 767 -233 -12 38 -766 37 -729 234 12zm-503 -27l-66 1309 1 0 -6 103 -234 -12 5 -103 1 0c20,-392 39,-772 65,-1307l234 10zm-501 -39l-132 1321 -234 -23 133 -1321 233 23zm-501 -47l-124 1232 -234 -23 126 -1234 232 25zm-497 -65l-176 1142 -231 -36 176 -1142 231 36zm-498 -74l-163 1059 -232 -36 163 -1059 232 36zm-495 -84l-101 481 0 -1 -99 482 -229 -48 99 -482 0 -1 101 -481 229 50zm-492 -99l-186 879 -229 -48 186 -880 229 49zm-492 -110c-65,246 -110,424 -155,592l-52 195 -226 -60 50 -194 156 -592 227 59zm-13473 -30978l-1445 -834 117 -203 1446 835 -118 202zm18210 -10649l-1 -1667 235 -1 2 1668 -236 0zm-10535 2890l-834 -1444 202 -118 834 1444 -202 118zm-4347 3371l-514 -514 165 -166 515 514 -166 166zm-3075 3965l-1330 -857 126 -197 1330 856 -126 198zm262 -429l-1259 -808 126 -197 1259 807 -126 198zm275 -420l-1150 -819 136 -190 1150 818 -136 191zm283 -415l-574 -407 -507 -359 135 -191 507 359 574 407 -135 191zm293 -408l-977 -765 145 -185 976 765 -144 185zm303 -399l-910 -709 143 -185 911 709 -144 185zm311 -395l-406 -347 -405 -347 151 -179 407 347 1 0 404 349 -152 177zm325 -383l-376 -318 0 0 -375 -320 152 -179 375 320 375 318 -151 179zm328 -380l-658 -612 159 -172 658 613 -159 171zm343 -366l-17 -17 0 0c-201,-184 -403,-370 -583,-534l159 -173c208,192 395,364 582,534l0 0 18 16 -159 174zm4262 -3489l-791 -1368 203 -118 791 1369 -203 117zm-420 276l-406 -628 -405 -629 196 -127 406 630 405 627 -196 127zm-423 274l-765 -1186 196 -127 766 1185 -197 128zm-406 294l-775 -1076 189 -136 775 1075 -189 137zm-409 294l-727 -1006 189 -137 727 1006 -189 137zm-393 314l-722 -901 182 -148 723 902 -183 147zm-394 313l-154 -192c-184,-229 -365,-455 -515,-641l182 -147c194,241 357,444 516,642l154 191 -183 147zm-377 333l-656 -736 176 -157 654 736 -174 157zm-378 331l-600 -669 175 -157 599 669 -174 157zm-362 350c-160,-162 -366,-370 -572,-578l166 -166c175,178 352,355 573,580l-167 164zm19998 -5234l189 -701 226 60 -189 703 -226 -62zm-15573 1951l-654 -1271 -70 -137 209 -108 70 137 654 1272 -209 107zm445 -231l-682 -1333 209 -107 682 1334 -209 106zm446 -236l-582 -1286 214 -95 581 1285 -213 96zm458 -208l-479 -1064 -66 -146 213 -96 66 146 480 1064 -214 96zm454 -213l-186 -476 -266 -680 218 -85 266 680 186 476 -218 85zm468 -188l-421 -1077 218 -85 420 1077 -217 85zm463 -192l-337 -1015 221 -74 338 1015 -222 74zm475 -165l-309 -934 223 -74 309 934 -223 74zm474 -170l-119 -434 -121 -433 227 -62 120 433 120 433 -227 63zm482 -143l-213 -783 225 -63c81,293 149,543 214,785l-226 61zm5435 -882l-74 -1582 234 -11 74 1582 -234 11zm-501 24c-22,-454 -42,-908 -67,-1497l233 -10c17,406 43,952 68,1496l-234 11zm-501 30l-66 -703 0 0 -65 -704 233 -21 64 703 0 0 67 704 -233 21zm-501 47l-122 -1321 234 -20 121 1320 -233 21zm-499 55l-171 -1230 233 -32 170 1230 -232 32zm-498 70l-157 -1144 232 -31 157 1143 -232 32zm-497 79l-192 -1053 229 -42 193 1053 -230 42zm-494 93l-173 -968 230 -41 173 968 -230 41zm-491 102l-199 -876 228 -52 198 876 -227 52zm-489 118l-178 -793 230 -51 176 793 -228 51zm-482 123l-188 -704 226 -60 188 703 -226 61zm15581 1774l791 -1370 203 118 -791 1370 -203 -118zm-441 -240c319,-557 532,-928 747,-1298l203 117 -747 1298 -203 -117zm-456 -216l643 -1258 208 107 -642 1257 -209 -106zm-452 -218l601 -1180 209 106 -602 1181 -208 -107zm-463 -196l64 -143 443 -990 213 96 -443 989 -63 144 -214 -96zm-464 -193l470 -1056 214 96 -470 1055 -214 -95zm-471 -177l384 -998 219 85 -385 998 -218 -85zm-472 -170l352 -917 218 84 -352 916 -218 -83zm-480 -154l280 -853 222 73 -280 854 -222 -74zm-479 -146l25 -80c71,-220 144,-444 226,-693l222 73c-69,211 -147,452 -224,692l-27 80 -222 -72zm-5449 -811l1 -1584 233 1 -1 1584 -233 -1zm501 15l38 -729 38 -766 234 12 -39 765 -36 730 -235 -12zm504 26l65 -1309 0 0 5 -102 234 12 -5 102 -1 0c-19,393 -39,772 -64,1308l-234 -11zm500 39l133 -1320 233 23 -133 1320 -233 -23zm501 48l125 -1234 233 25 -125 1234 -233 -25zm498 64l175 -1143 232 37 -176 1142 -231 -36zm497 74l163 -1059 232 37 -163 1058 -232 -36zm495 85l101 -481 0 0 99 -481 229 48 -99 481 0 1 -101 480 -229 -48zm493 99l186 -880 229 49 -186 880 -229 -49zm492 109c64,-246 110,-423 155,-593l51 -194 227 61 -51 194 -155 591 -227 -59zm-27488 11971l-271 -101c-53,143 -111,179 -189,150l-931 -348c-441,-166 -700,-19 -867,427l-210 563 291 108 225 -601c73,-194 205,-255 360,-197l195 73 -181 481c-145,387 2,646 390,791l77 29c389,146 590,22 734,-366l130 -346c38,-100 21,-200 -29,-280 92,-32 171,-100 196,-169l80 -214zm-553 593l-129 345c-51,136 -131,173 -267,122l-194 -73c-135,-51 -196,-183 -145,-319l181 -486 428 160c77,30 193,73 126,251zm1308 -2463l-287 -117 -218 533c-78,192 -213,248 -366,186l-843 -343c-155,-63 -211,-197 -133,-390l217 -533 -287 -117 -202 495c-180,441 -89,724 348,902l691 281c441,179 699,39 878,-402l202 -495zm1168 -2101l-1476 68 -361 -1027 -215 387 326 927 -1366 -763 -172 308 2530 1412 173 -307 -774 -432 -56 -155 1178 -39 213 -379zm1128 -1707l-257 -176 -372 545c-117,170 -260,198 -397,104l-256 -175 621 -910 -445 -303c-342,-233 -641,-198 -866,131l-110 160c-268,394 -217,654 174,921l615 420c393,269 676,186 944,-208l349 -509zm-1779 -40c-136,-94 -186,-204 -70,-375l136 -198c82,-120 225,-147 345,-65l257 175 -428 626 -240 -163zm3056 -1557l-240 -198 -286 348 -905 -745c-64,-57 -154,-217 -27,-370l298 -361 -256 -211 -271 329c-84,102 -124,209 -125,327l-86 -71 -403 489 240 197 192 -233 1119 922 -192 233 239 198 703 -854zm1348 -2151l-130 -134c-243,-254 -513,-248 -779,7l-102 97c-74,72 -181,99 -272,3l-104 -107c-85,-90 -59,-201 36,-293l431 -412 -215 -225 -401 384c-284,273 -354,529 -88,807l83 87c259,269 506,245 781,-19l110 -106c84,-80 172,-78 257,12l153 158c85,90 69,192 -37,292l-475 456 215 224 446 -427c284,-272 336,-546 91,-804zm1682 112l-440 -550 358 -287c372,-298 430,-590 135,-957l-466 -583c-298,-370 -593,-373 -964,-76l-116 94c-97,77 -170,173 -196,285l-63 -78 -258 208 1736 2164 274 -220zm-1331 -2091l181 -145c161,-130 306,-113 411,15l569 712c104,128 88,274 -74,403l-391 314 -764 -953c-51,-65 -93,-216 68,-346zm3703 -498l-152 -247c-130,81 -198,74 -242,4l-524 -844c-249,-401 -544,-443 -948,-191l-510 317 164 264 545 -339c176,-109 318,-76 406,64l109 176 -436 272c-352,218 -393,512 -174,864l43 70c219,353 453,377 805,158l314 -195c91,-56 139,-145 149,-239 91,31 195,25 258,-14l193 -120zm-799 131l-314 195c-122,77 -208,56 -284,-67l-111 -175c-76,-123 -43,-266 80,-343l440 -273 241 387c43,71 109,176 -52,276zm2532 -1165l-159 -267 -496 293c-177,105 -319,69 -404,-73l-465 -783c-85,-143 -48,-284 130,-390l495 -294 -159 -267 -459 273c-410,243 -508,523 -267,928l380 641c243,410 535,454 943,211l461 -272zm2020 -902l-125 -284 -603 265c-189,83 -326,30 -393,-122l-124 -284 1009 -443 -217 -493c-166,-379 -440,-507 -803,-348l-179 79c-436,191 -530,440 -340,873l299 682c192,436 475,515 911,323l565 -248zm-1487 -975c-66,-151 -50,-271 139,-354l220 -97c133,-58 269,-5 327,127l125 285 -694 304 -117 -265zm3222 333l-136 -391 -392 137 138 391 390 -137zm2706 -698l-670 -2820 -342 81 191 806 -467 111c-464,110 -641,348 -532,808l173 725c110,463 374,593 837,482l165 -40c122,-28 224,-83 301,-168l22 92 322 -77zm-676 -158l-246 58c-201,49 -326,-29 -364,-189l-210 -887c-39,-161 38,-286 240,-334l507 -121 283 1189c18,80 -8,235 -210,284zm2798 -841l-105 -738c-66,-467 -318,-623 -790,-557l-134 19c-473,67 -671,287 -605,755l104 738c66,467 318,624 790,557l136 -19c471,-67 670,-287 604,-755zm-337 132c23,164 -65,281 -270,309l-218 31c-204,30 -321,-58 -344,-223l-128 -901c-23,-165 65,-282 270,-310l217 -32c205,-29 322,60 345,224l128 902zm1931 -2094l-22 -373 -393 25 23 371 392 -23zm749 2484l-20 -310 -611 38 -110 -1757 -959 60 20 310 608 -38 108 1757 964 -60zm2123 92l12 -310 -418 -18c-123,-5 -184,-49 -179,-172l53 -1283 603 24 13 -310 -605 -24 21 -497 -351 -14 -21 496 -393 -16 -13 311 393 16 -51 1261c-12,290 125,503 414,514l522 22zm2415 -355l118 -737c75,-466 -120,-690 -590,-765l-135 -22c-471,-75 -725,77 -800,544l-117 736c-75,465 120,690 590,765l134 21c471,76 726,-76 800,-542zm-361 25c-26,164 -144,250 -349,218l-216 -35c-205,-33 -290,-152 -264,-315l144 -900c26,-164 144,-249 349,-216l216 35c205,32 291,151 265,314l-145 899zm2292 1075l68 -303 -561 -128c-202,-46 -280,-170 -243,-332l203 -887c36,-162 160,-240 363,-193l561 127 69 -303 -521 -118c-464,-106 -728,28 -834,489l-166 726c-105,465 76,698 540,803l521 119zm1923 612l110 -291 -423 -159 411 -1097c34,-80 155,-216 341,-146l439 164 115 -310 -399 -150c-124,-46 -238,-49 -349,-11l39 -105 -593 -222 -109 291 283 106 -508 1357 -283 -106 -109 292 1035 387zm2481 990l109 -268c-141,-58 -175,-117 -144,-194l374 -920c178,-437 39,-700 -402,-879l-557 -227 -117 288 595 242c192,78 249,213 187,366l-78 192 -476 -194c-384,-156 -646,-17 -802,367l-31 77c-156,383 -38,588 345,744l341 139c100,41 199,27 281,-20 30,93 95,173 164,201l211 86zm-577 -571l-341 -138c-135,-55 -169,-136 -114,-271l78 -191c54,-134 189,-191 324,-136l480 195 -172 422c-31,76 -78,191 -255,119zm2380 1606l152 -271 -366 -204c-108,-61 -143,-127 -82,-235l625 -1121 529 294 151 -272 -529 -294 243 -434 -307 -171 -243 434 -343 -192 -151 271 343 192 -616 1102c-140,254 -115,506 138,646l456 255zm1482 964l233 -342 -341 -234 -234 342 342 234zm2620 1218l475 -576c300,-364 245,-655 -123,-959l-105 -86c-367,-303 -664,-301 -964,63l-475 577c-299,363 -245,655 122,957l106 88c367,303 665,301 964,-64zm-324 -160c-105,128 -250,142 -410,11l-170 -140c-160,-132 -174,-278 -68,-406l579 -702c105,-129 251,-142 411,-11l169 140c159,131 174,277 69,406l-580 702zm171 1881l508 -486 318 331c329,345 624,377 966,50l538 -515c344,-330 321,-623 -8,-967l-104 -108c-86,-90 -187,-153 -300,-170l71 -69 -229 -239 -2004 1919 244 254zm1966 -1510l159 168c144,150 141,296 21,410l-657 630c-120,115 -267,112 -410,-38l-346 -362 881 -845c60,-57 208,-112 352,37zm694 3435l243 -195 -412 -513c-129,-162 -114,-307 15,-411l243 -195 689 859 420 -336c323,-260 376,-557 128,-867l-122 -151c-299,-372 -564,-398 -932,-103l-581 466c-372,299 -375,592 -76,964l385 482zm557 -1689c129,-104 249,-120 378,41l151 188c90,113 75,258 -38,349l-243 194 -474 -591 226 -181zm203 2668l1301 -809c70,-43 226,-68 336,109l143 231c88,142 55,284 -86,371l-1266 787 185 299 1196 -743c405,-251 443,-543 214,-913l-102 -162c-65,-105 -151,-188 -258,-228l84 -53 -175 -281 -1758 1093 186 299zm2141 2534l160 -96c303,-180 358,-444 171,-761l-73 -121c-52,-89 -55,-198 59,-265l128 -77c107,-63 209,-13 277,101l304 513 267 -159 -282 -477c-201,-338 -436,-464 -766,-268l-104 62c-321,190 -353,436 -159,763l78 132c60,99 38,184 -69,248l-188 112c-107,63 -203,23 -277,-101l-336 -566 -267 159 315 530c200,339 456,452 762,271zm1141 2157l679 -306c431,-194 511,-480 315,-915l-55 -124c-196,-434 -464,-564 -894,-370l-680 307c-430,194 -510,480 -315,914l57 125c196,434 462,563 893,369zm-220 -287c-151,69 -288,16 -373,-172l-91 -200c-84,-189 -33,-326 118,-394l831 -375c151,-68 287,-16 373,173l90 200c85,189 33,326 -118,394l-830 374zm344 2635l1954 -687 -116 -331 -1457 512c-86,20 -229,1 -293,-183l-74 -210c-56,-157 8,-289 165,-344l1405 -494 -116 -332 -1328 466c-449,158 -550,436 -406,845l47 133c42,118 105,213 200,282l-90 31 109 312zm439 1856l302 -72 -104 -440 1140 -270c85,-17 266,9 312,202l108 456 323 -78 -99 -414c-31,-129 -92,-225 -185,-297l108 -26 -146 -615 -303 71 71 294 -1411 335 -69 -294 -303 72 256 1076zm406 2417l307 -43 -81 -571c-28,-205 60,-322 224,-345l902 -127c164,-24 281,64 309,269l81 571 307 -44 -74 -529c-67,-472 -288,-671 -755,-605l-738 105c-471,66 -624,318 -557,790l75 529zm142 2206l310 -16 -34 -657c-10,-207 87,-316 253,-325l309 -17 59 1101 537 -28c414,-22 630,-233 610,-629l-11 -195c-24,-476 -224,-651 -695,-626l-746 38c-475,25 -649,262 -624,738l32 616zm1438 -1046c166,-8 272,49 283,256l13 239c7,145 -90,253 -235,261l-311 17 -40 -757 290 -16zm-1498 2896l413 17 17 -414 -414 -16 -16 413zm-295 2628l307 49 91 -569c33,-204 151,-290 315,-264l900 144c163,27 249,145 216,350l-91 568 307 49 85 -528c75,-470 -77,-725 -544,-800l-735 -118c-470,-75 -691,121 -766,591l-85 528zm142 2482l727 166c460,105 697,-75 802,-539l30 -134c107,-464 -29,-728 -489,-833l-727 -165c-459,-106 -696,74 -802,538l-31 134c-105,464 29,728 490,833zm-2 -361c-162,-37 -240,-161 -193,-363l48 -214c46,-202 170,-280 331,-243l889 202c162,37 239,161 193,363l-49 215c-46,201 -170,279 -332,242l-887 -202zm-868 1043l1458 545c84,36 207,122 141,296l-9 24c-50,135 -128,155 -349,72l-1397 -523 -116 310 1424 533c87,38 243,131 178,305l-9 24c-61,162 -158,149 -351,76l-1397 -522 -116 310 1393 521c422,158 606,46 719,-257l9 -23c47,-124 49,-261 -29,-396 128,-35 231,-143 299,-326l9 -23c34,-93 34,-186 0,-273l90 33 108 -291 -1939 -726 -116 311zm-799 2088l1441 586c83,39 204,128 134,301l-10 23c-54,134 -133,151 -352,62l-1380 -562 -126 307 1409 572c86,40 239,138 168,311l-9 23c-66,161 -161,144 -354,66l-1381 -561 -125 306 1378 561c418,169 604,62 726,-236l9 -24c51,-123 57,-258 -16,-396 128,-32 234,-136 307,-318l10 -22c37,-92 39,-186 7,-274l89 36 117 -288 -1917 -780 -125 307zm-1609 3192l1809 1008 170 -307 -1348 -753c-72,-50 -152,-170 -57,-340l109 -195c81,-145 221,-185 367,-104l1301 727 172 -308 -1230 -686c-416,-231 -690,-124 -902,256l-68 123c-60,108 -90,220 -78,336l-84 -47 -161 290zm-591 923l1265 865c68,46 153,180 36,351l-154 225c-93,137 -237,164 -373,70l-1231 -841 -199 292 1162 794c393,268 676,185 921,-174l107 -157c71,-103 113,-214 106,-329l82 55 186 -274 -1710 -1167 -198 290zm238 3867l288 237 250 -303 -287 -237 -251 303zm-2326 -1149l240 198 390 -473 1358 1119 610 -742 -239 -198 -387 470 -1359 -1118 -613 744zm-1495 1509l215 224 302 -289c90,-86 163,-100 249,-10l888 927 -436 419 214 224 437 -418 344 359 254 -244 -344 -359 285 -272 -216 -225 -284 273 -874 -912c-200,-209 -447,-259 -657,-58l-377 361zm-990 383l-194 -242 -156 124c-207,166 -319,310 -136,725l936 2191 281 -226 -734 -1635 1490 1029 297 -238 -1829 -1187 -64 51 -98 -213c-51,-118 -29,-190 72,-270l135 -109zm-15656 -46518l0 -947 235 0 0 947 -235 0zm-14231 3882l-476 -822 203 -118 475 822 -202 118zm-5873 4542l-670 -669 165 -165 671 669 -166 165zm-4161 5348l-799 -516 126 -197 800 516 -127 197zm355 -580l-794 -510 125 -197 794 510 -125 197zm372 -565l-774 -552 135 -192 775 552 -136 192zm383 -561l-771 -545 136 -192 769 546 -134 191zm398 -548l-749 -585 144 -185 748 585 -143 185zm409 -541l-746 -580 143 -186 747 581 -144 185zm421 -530l-719 -616 152 -177 719 615 -152 178zm438 -517l-722 -615 152 -178 722 614 -152 179zm444 -514l-693 -643 160 -172 693 644 -160 171zm462 -494l-698 -642 158 -172 698 641 -158 173zm5763 -4699l-472 -816 202 -118 473 816 -203 118zm-568 371l-515 -799 196 -127 515 799 -196 127zm-570 368l-514 -792 196 -127 514 792 -196 127zm-552 397l-555 -771 190 -137 555 770 -190 138zm-551 397l-552 -766 189 -138 552 766 -189 138zm-533 420l-593 -740 184 -147 593 741 -184 146zm-529 423l-593 -736 182 -147 593 737 -182 146zm-512 448l-631 -710 174 -155 631 709 -174 156zm-510 448l-630 -703 174 -157 629 703 -173 157zm-489 470l-669 -673 166 -166 669 673 -166 166zm27008 -7025l246 -915 226 61 -245 915 -227 -61zm-21028 2603l-431 -838 208 -107 431 837 -208 108zm602 -311l-433 -846 209 -107 433 847 -209 106zm601 -317l-387 -859 212 -96 389 859 -214 96zm618 -282l-391 -866 214 -96 391 867 -214 95zm616 -286l-345 -877 218 -87 345 878 -218 86zm629 -253l-344 -886 218 -85 345 886 -219 85zm628 -258l-298 -894 222 -74 298 894 -222 74zm642 -222l-299 -901 222 -74 299 902 -222 73zm639 -227l-249 -909 226 -63 249 909 -226 63zm652 -192l-251 -917 226 -61 251 916 -226 62zm7340 -1183l-44 -943 234 -12 44 944 -234 11zm-677 31l-45 -950 234 -10 45 949 -234 11zm-678 39l-88 -939 233 -21 88 938 -233 22zm-676 64l-87 -946 233 -21 87 946 -233 21zm-675 72l-129 -934 232 -33 130 935 -233 32zm-672 95l-128 -941 232 -31 128 941 -232 31zm-669 103l-170 -927 230 -40 170 926 -230 41zm-668 130l-168 -936 231 -41 168 935 -231 42zm-664 135l-210 -919 229 -53 209 920 -228 52zm-660 158l-206 -927 228 -51 206 929 -228 49zm-651 164l-243 -910 227 -60 242 909 -226 61zm21032 2427l474 -824 203 117 -475 824 -202 -117zm-597 -325l471 -818 203 116 -471 819 -203 -117zm-612 -293l432 -846 209 106 -432 847 -209 -107zm-611 -294l429 -841 208 107 -429 841 -208 -107zm-625 -266l387 -865 214 95 -387 866 -214 -96zm-626 -262l385 -865 214 96 -385 864 -214 -95zm-636 -238l342 -884 218 85 -342 883 -218 -84zm-637 -231l339 -883 219 83 -340 884 -218 -84zm-646 -209l293 -900 223 73 -293 900 -223 -73zm-649 -198l293 -902 223 72 -293 902 -223 -72zm-7353 -1109l1 -945 233 1 0 944 -234 0zm679 24l45 -949 235 11 -46 949 -234 -11zm678 33l47 -942 234 11 -48 943 -233 -12zm675 55l95 -946 233 24 -95 945 -233 -23zm677 66l94 -937 233 23 -94 937 -233 -23zm672 89l143 -939 231 36 -143 938 -231 -35zm670 98l145 -932 231 36 -145 932 -231 -36zm668 119l193 -928 230 47 -193 930 -230 -49zm666 132l194 -925 229 49 -194 925 -229 -49zm662 150l242 -917 227 60 -242 917 -227 -60zm-20732 52434l-472 816 -202 -117 471 -816 203 117zm-14343 -24608l-946 0 1 -234 946 0 -1 234zm3882 14232l-822 476 -117 -203 822 -475 117 202zm4544 5873l-671 670 -165 -165 670 -671 166 166zm5346 4160l-515 800 -197 -126 515 -800 197 126zm-579 -354l-510 794 -197 -125 510 -794 197 125zm-566 -372l-552 774 -191 -135 553 -775 190 136zm-560 -383l-546 770 -192 -135 547 -769 191 134zm-548 -398l-586 749 -184 -144 584 -748 186 143zm-542 -409l-580 746 -184 -143 580 -747 184 144zm-529 -421l-617 719 -177 -152 615 -719 179 152zm-518 -438l-614 722 -178 -152 613 -722 179 152zm-512 -444l-645 693 -172 -160 645 -693 172 160zm-496 -462l-641 698 -172 -158 640 -698 173 158zm-4699 -5763l-816 471 -117 -201 816 -473 117 203zm371 568l-799 515 -127 -196 799 -515 127 196zm369 570l-793 514 -127 -196 793 -514 127 196zm396 552l-771 555 -136 -190 770 -555 137 190zm397 551l-765 552 -138 -189 766 -552 137 189zm421 532l-741 594 -146 -184 741 -593 146 183zm423 530l-737 593 -146 -182 736 -593 147 182zm447 512l-709 631 -156 -174 709 -631 156 174zm448 510l-703 630 -157 -174 703 -629 157 173zm470 489l-672 669 -166 -166 672 -669 166 166zm-7024 -27009l-915 -245 61 -226 914 245 -60 226zm2602 21029l-837 431 -108 -208 838 -431 107 208zm-311 -602l-845 433 -107 -209 846 -433 106 209zm-317 -601l-858 387 -97 -212 860 -389 95 214zm-282 -618l-866 391 -95 -214 866 -391 95 214zm-286 -616l-877 345 -86 -218 877 -345 86 218zm-253 -629l-885 344 -85 -218 886 -345 84 219zm-258 -628l-894 298 -74 -222 894 -298 74 222zm-221 -642l-902 299 -74 -222 902 -300 74 223zm-228 -639l-909 249 -62 -226 908 -249 63 226zm-192 -652l-916 251 -62 -226 916 -251 62 226zm-1183 -7340l-943 44 -11 -234 944 -44 10 234zm32 677l-949 45 -12 -234 949 -45 12 234zm39 678l-939 88 -22 -233 938 -88 23 233zm64 676l-947 87 -21 -233 947 -87 21 233zm71 675l-934 129 -31 -232 933 -130 32 233zm96 672l-941 128 -31 -232 941 -128 31 232zm103 669l-926 170 -42 -230 926 -170 42 230zm129 667l-935 169 -41 -231 935 -168 41 230zm136 665l-920 209 -52 -228 919 -210 53 229zm159 660l-929 206 -51 -228 929 -206 51 228zm162 651l-909 243 -61 -227 909 -243 61 227zm2427 -21032l-823 -474 117 -203 823 474 -117 203zm-324 597l-819 -471 117 -203 819 471 -117 203zm-293 612l-847 -432 107 -209 846 432 -106 209zm-295 611l-841 -429 107 -208 842 429 -108 208zm-266 625l-865 -387 95 -214 866 387 -96 214zm-261 626l-866 -385 96 -214 865 385 -95 214zm-238 636l-885 -342 85 -218 884 341 -84 219zm-231 637l-883 -340 84 -218 883 339 -84 219zm-209 646l-901 -294 73 -222 901 293 -73 223zm-198 649l-903 -293 73 -223 902 293 -72 223zm-1110 7353l-945 -1 1 -233 945 0 -1 234zm24 -679l-948 -46 11 -234 948 46 -11 234zm33 -678l-942 -47 12 -234 942 48 -12 233zm55 -675l-945 -95 24 -233 944 95 -23 233zm67 -677l-938 -94 23 -233 938 94 -23 233zm88 -672l-939 -143 36 -231 938 143 -35 231zm98 -670l-931 -145 36 -231 931 145 -36 231zm120 -668l-929 -193 48 -230 929 193 -48 230zm131 -666l-925 -194 49 -230 926 195 -50 229zm151 -663l-918 -241 60 -227 917 242 -59 226zm52434 20733l816 472 -118 202 -816 -471 118 -203zm-24607 14343l-1 946 -234 -1 0 -946 235 1zm14231 -3882l475 822 -202 117 -476 -822 203 -117zm5873 -4544l670 671 -165 165 -671 -670 166 -166zm4160 -5346l799 515 -125 197 -801 -515 127 -197zm-355 578l795 511 -126 197 -794 -511 125 -197zm-371 567l773 552 -135 190 -774 -552 136 -190zm-383 560l770 546 -135 192 -770 -547 135 -191zm-398 548l748 586 -144 184 -747 -584 143 -186zm-409 542l746 580 -143 184 -748 -580 145 -184zm-422 529l719 617 -152 177 -719 -616 152 -178zm-438 518l722 614 -151 178 -722 -613 151 -179zm-444 512l693 645 -159 172 -693 -645 159 -172zm-462 496l698 641 -158 172 -698 -640 158 -173zm-5763 4699l472 816 -202 117 -472 -816 202 -117zm568 -371l516 799 -197 127 -515 -799 196 -127zm571 -369l513 793 -196 127 -513 -793 196 -127zm552 -396l555 771 -190 136 -555 -770 190 -137zm550 -397l553 765 -190 137 -552 -765 189 -137zm533 -421l594 741 -184 146 -594 -741 184 -146zm530 -424l592 738 -182 146 -592 -736 182 -148zm511 -446l631 709 -174 156 -631 -709 174 -156zm511 -448l630 703 -175 157 -629 -703 174 -157zm489 -470l668 672 -166 166 -668 -672 166 -166zm-27009 7024l-246 915 -226 -61 246 -915 226 61zm21029 -2603l431 838 -209 108 -431 -838 209 -108zm-603 312l433 845 -209 107 -433 -846 209 -106zm-601 317l388 858 -213 97 -389 -860 214 -95zm-618 282l391 866 -213 95 -391 -866 213 -95zm-616 286l346 877 -218 86 -345 -877 217 -86zm-629 253l344 885 -218 85 -345 -886 219 -84zm-627 257l297 895 -221 74 -299 -894 223 -75zm-642 222l298 902 -222 74 -299 -902 223 -74zm-640 228l250 909 -227 62 -248 -908 225 -63zm-651 192l250 916 -226 62 -250 -916 226 -62zm-7341 1183l45 943 -235 11 -44 -944 234 -10zm678 -32l45 949 -235 12 -44 -949 234 -12zm677 -39l88 939 -233 22 -88 -938 233 -23zm677 -64l86 947 -233 21 -87 -947 234 -21zm674 -71l130 934 -233 31 -130 -933 233 -32zm672 -96l128 940 -232 32 -128 -941 232 -31zm670 -103l170 926 -231 42 -170 -926 231 -42zm668 -129l167 934 -230 42 -169 -935 232 -41zm664 -136l209 920 -229 52 -208 -919 228 -53zm659 -159l206 929 -228 51 -206 -929 228 -51zm651 -163l244 910 -227 61 -243 -909 226 -62zm-21032 -2426l-474 823 -203 -117 475 -823 202 117zm597 324l-471 819 -202 -117 470 -819 203 117zm612 293l-432 847 -208 -107 431 -846 209 106zm612 295l-430 840 -207 -106 428 -842 209 108zm624 266l-387 865 -214 -95 387 -866 214 96zm626 261l-385 866 -214 -96 385 -865 214 95zm636 238l-341 885 -219 -85 343 -885 217 85zm637 231l-339 883 -219 -84 340 -883 218 84zm647 209l-294 901 -222 -74 293 -900 223 73zm648 198l-292 903 -224 -73 293 -902 223 72zm7354 1110l-1 945 -234 -1 1 -945 234 1zm-679 -24l-46 948 -234 -11 46 -948 234 11zm-679 -33l-46 942 -234 -12 47 -942 233 12zm-675 -55l-94 944 -233 -23 94 -944 233 23zm-676 -67l-94 938 -234 -23 95 -939 233 24zm-672 -88l-143 938 -232 -35 143 -938 232 35zm-671 -98l-145 931 -231 -36 145 -932 231 37zm-668 -120l-193 929 -230 -48 193 -929 230 48zm-666 -131l-194 925 -229 -49 194 -926 229 50zm-662 -151l-242 918 -226 -60 241 -917 227 59zm20732 -52434l472 -816 203 118 -472 816 -203 -118zm14343 24607l946 1 0 233 -946 0 0 -234zm-3882 -14231l822 -475 118 202 -822 475 -118 -202zm-4543 -5873l670 -670 165 165 -669 670 -166 -165zm-5347 -4160l516 -799 197 125 -516 801 -197 -127zm580 354l510 -795 197 127 -510 794 -197 -126zm565 372l552 -773 192 135 -553 774 -191 -136zm561 382l545 -769 192 134 -546 771 -191 -136zm548 398l585 -747 185 144 -585 747 -185 -144zm541 410l580 -746 185 143 -580 747 -185 -144zm530 422l616 -719 177 152 -615 719 -178 -152zm517 437l615 -721 178 151 -614 722 -179 -152zm513 445l644 -693 172 159 -644 693 -172 -159zm495 462l641 -698 172 158 -640 697 -173 -157zm4699 5763l816 -473 118 203 -816 471 -118 -201zm-371 -568l799 -516 127 197 -799 515 -127 -196zm-368 -571l792 -513 127 196 -792 513 -127 -196zm-397 -552l771 -555 137 190 -770 555 -138 -190zm-397 -550l766 -553 137 190 -765 552 -138 -189zm-420 -533l740 -594 147 184 -741 593 -146 -183zm-424 -530l737 -592 147 182 -737 592 -147 -182zm-447 -511l710 -631 155 174 -709 631 -156 -174zm-448 -512l703 -629 157 175 -703 629 -157 -175zm-470 -488l673 -668 166 165 -673 669 -166 -166zm7025 27009l915 245 -62 227 -914 -246 61 -226zm-2603 -21029l837 -431 108 209 -837 431 -108 -209zm311 603l846 -433 107 209 -847 433 -106 -209zm317 601l859 -388 96 213 -859 388 -96 -213zm282 618l866 -391 96 213 -867 391 -95 -213zm286 616l877 -346 87 218 -878 345 -86 -217zm253 629l886 -344 85 218 -886 344 -85 -218zm258 627l894 -297 74 221 -894 299 -74 -223zm222 642l901 -298 74 222 -902 299 -73 -223zm227 640l909 -250 63 226 -909 249 -63 -225zm192 651l917 -250 61 226 -916 250 -62 -226zm1183 7341l943 -45 12 235 -944 44 -11 -234zm-31 -678l949 -45 11 235 -949 44 -11 -234zm-39 -677l939 -88 21 233 -938 88 -22 -233zm-64 -677l946 -86 21 233 -947 87 -20 -234zm-72 -674l934 -130 32 233 -934 130 -32 -233zm-95 -672l941 -128 31 232 -941 128 -31 -232zm-103 -670l926 -170 41 231 -926 170 -41 -231zm-130 -668l935 -167 41 230 -934 169 -42 -232zm-136 -664l920 -209 53 229 -920 208 -53 -228zm-158 -659l928 -206 51 228 -929 206 -50 -228zm-163 -651l910 -244 60 227 -909 243 -61 -226zm-2427 21032l824 474 -117 202 -824 -474 117 -202zm325 -597l818 471 -116 202 -820 -471 118 -202zm293 -612l846 432 -107 208 -846 -431 107 -209zm294 -612l841 430 -107 207 -841 -428 107 -209zm266 -624l865 387 -95 214 -866 -387 96 -214zm262 -626l865 385 -96 214 -864 -386 95 -213zm237 -636l885 341 -85 219 -883 -343 83 -217zm232 -637l883 339 -84 219 -883 -340 84 -218zm209 -647l900 294 -73 222 -900 -293 73 -223zm198 -648l902 292 -73 224 -901 -293 72 -223zm1109 -7354l945 1 -1 234 -945 -1 1 -234zm-24 679l949 45 -11 235 -949 -46 11 -234zm-33 678l942 47 -12 234 -942 -47 12 -234zm-55 675l945 95 -23 233 -945 -94 23 -234zm-66 676l937 95 -23 234 -937 -95 23 -234zm-89 673l939 143 -36 232 -938 -143 35 -232zm-98 671l932 145 -36 231 -932 -145 36 -231zm-119 668l928 193 -48 230 -929 -193 49 -230zm-132 666l925 194 -49 229 -925 -194 49 -229zm-150 662l917 242 -60 226 -917 -241 60 -227z"/>
  </g>
 </g>
</svg>
